  0
SECTION
  2
HEADER
  9
$ACADVER
  1
AC1027
  9
$ACADMAINTVER
 70
   105
  9
$DWGCODEPAGE
  3
ANSI_1252
  9
$REQUIREDVERSIONS
160
                 0
  9
$INSBASE
 10
0.0
 20
0.0
 30
0.0
  9
$EXTMIN
 10
0.0
 20
0.0
 30
0.0
  9
$EXTMAX
 10
1117.6
 20
863.6
 30
0.0
  9
$LIMMIN
 10
0.0
 20
0.0
  9
$LIMMAX
 10
1117.6
 20
863.6
  9
$ORTHOMODE
 70
     0
  9
$REGENMODE
 70
     1
  9
$FILLMODE
 70
     1
  9
$QTEXTMODE
 70
     0
  9
$MIRRTEXT
 70
     1
  9
$LTSCALE
 40
1.0
  9
$ATTMODE
 70
     1
  9
$TEXTSIZE
 40
3.5
  9
$TRACEWID
 40
1.0
  9
$TEXTSTYLE
  7
STANDARD
  9
$CLAYER
  8
0
  9
$CELTYPE
  6
ByLayer
  9
$CECOLOR
 62
   256
  9
$CELTSCALE
 40
1.0
  9
$DISPSILH
 70
     0
  9
$DIMSCALE
 40
1.0
  9
$DIMASZ
 40
3.302
  9
$DIMEXO
 40
1.0
  9
$DIMDLI
 40
3.75
  9
$DIMRND
 40
0.0
  9
$DIMDLE
 40
0.0
  9
$DIMEXE
 40
1.0
  9
$DIMTP
 40
0.0
  9
$DIMTM
 40
0.0
  9
$DIMTXT
 40
3.5
  9
$DIMCEN
 40
2.5
  9
$DIMTSZ
 40
0.0
  9
$DIMTOL
 70
     0
  9
$DIMLIM
 70
     0
  9
$DIMTIH
 70
     1
  9
$DIMTOH
 70
     1
  9
$DIMSE1
 70
     0
  9
$DIMSE2
 70
     0
  9
$DIMTAD
 70
     1
  9
$DIMZIN
 70
     1
  9
$DIMBLK
  1

  9
$DIMASO
 70
     1
  9
$DIMSHO
 70
     1
  9
$DIMPOST
  1

  9
$DIMAPOST
  1

  9
$DIMALT
 70
     0
  9
$DIMALTD
 70
     3
  9
$DIMALTF
 40
0.0393700787
  9
$DIMLFAC
 40
1.0
  9
$DIMTOFL
 70
     1
  9
$DIMTVP
 40
0.0
  9
$DIMTIX
 70
     0
  9
$DIMSOXD
 70
     0
  9
$DIMSAH
 70
     0
  9
$DIMBLK1
  1

  9
$DIMBLK2
  1

  9
$DIMSTYLE
  2
ISO-25
  9
$DIMCLRD
 70
     0
  9
$DIMCLRE
 70
     0
  9
$DIMCLRT
 70
     0
  9
$DIMTFAC
 40
1.0
  9
$DIMGAP
 40
1.524
  9
$DIMJUST
 70
     0
  9
$DIMSD1
 70
     0
  9
$DIMSD2
 70
     0
  9
$DIMTOLJ
 70
     0
  9
$DIMTZIN
 70
     1
  9
$DIMALTZ
 70
     0
  9
$DIMALTTZ
 70
     0
  9
$DIMUPT
 70
     0
  9
$DIMDEC
 70
     4
  9
$DIMTDEC
 70
     4
  9
$DIMALTU
 70
     2
  9
$DIMALTTD
 70
     3
  9
$DIMTXSTY
  7
STANDARD
  9
$DIMAUNIT
 70
     0
  9
$DIMADEC
 70
     0
  9
$DIMALTRND
 40
0.0
  9
$DIMAZIN
 70
     0
  9
$DIMDSEP
 70
    44
  9
$DIMATFIT
 70
     3
  9
$DIMFRAC
 70
     0
  9
$DIMLDRBLK
  1

  9
$DIMLUNIT
 70
     2
  9
$DIMLWD
 70
    -2
  9
$DIMLWE
 70
    -2
  9
$DIMTMOVE
 70
     0
  9
$DIMFXL
 40
1.0
  9
$DIMFXLON
 70
     0
  9
$DIMJOGANG
 40
0.7853981634
  9
$DIMTFILL
 70
     0
  9
$DIMTFILLCLR
 70
     0
  9
$DIMARCSYM
 70
     0
  9
$DIMLTYPE
  6

  9
$DIMLTEX1
  6

  9
$DIMLTEX2
  6

  9
$DIMTXTDIRECTION
 70
     0
  9
$LUNITS
 70
     2
  9
$LUPREC
 70
     4
  9
$SKETCHINC
 40
1.0
  9
$FILLETRAD
 40
10.0
  9
$AUNITS
 70
     0
  9
$AUPREC
 70
     0
  9
$MENU
  1
.
  9
$ELEVATION
 40
0.0
  9
$PELEVATION
 40
0.0
  9
$THICKNESS
 40
0.0
  9
$LIMCHECK
 70
     0
  9
$CHAMFERA
 40
0.0
  9
$CHAMFERB
 40
0.0
  9
$CHAMFERC
 40
0.0
  9
$CHAMFERD
 40
0.0
  9
$SKPOLY
 70
     0
  9
$TDCREATE
 40
2459417.664606574
  9
$TDUCREATE
 40
2459417.581273241
  9
$TDUPDATE
 40
2459417.664608021
  9
$TDUUPDATE
 40
2459417.581274687
  9
$TDINDWG
 40
0.0000000116
  9
$TDUSRTIMER
 40
0.0000000116
  9
$USRTIMER
 70
     1
  9
$ANGBASE
 50
0.0
  9
$ANGDIR
 70
     0
  9
$PDMODE
 70
     0
  9
$PDSIZE
 40
-1.0
  9
$PLINEWID
 40
0.0
  9
$SPLFRAME
 70
     0
  9
$SPLINETYPE
 70
     6
  9
$SPLINESEGS
 70
     8
  9
$HANDSEED
  5
201
  9
$SURFTAB1
 70
     6
  9
$SURFTAB2
 70
     6
  9
$SURFTYPE
 70
     6
  9
$SURFU
 70
     6
  9
$SURFV
 70
     6
  9
$UCSBASE
  2

  9
$UCSNAME
  2

  9
$UCSORG
 10
0.0
 20
0.0
 30
0.0
  9
$UCSXDIR
 10
1.0
 20
0.0
 30
0.0
  9
$UCSYDIR
 10
0.0
 20
1.0
 30
0.0
  9
$UCSORTHOREF
  2

  9
$UCSORTHOVIEW
 70
     0
  9
$UCSORGTOP
 10
0.0
 20
0.0
 30
0.0
  9
$UCSORGBOTTOM
 10
0.0
 20
0.0
 30
0.0
  9
$UCSORGLEFT
 10
0.0
 20
0.0
 30
0.0
  9
$UCSORGRIGHT
 10
0.0
 20
0.0
 30
0.0
  9
$UCSORGFRONT
 10
0.0
 20
0.0
 30
0.0
  9
$UCSORGBACK
 10
0.0
 20
0.0
 30
0.0
  9
$PUCSBASE
  2

  9
$PUCSNAME
  2

  9
$PUCSORG
 10
0.0
 20
0.0
 30
0.0
  9
$PUCSXDIR
 10
1.0
 20
0.0
 30
0.0
  9
$PUCSYDIR
 10
0.0
 20
1.0
 30
0.0
  9
$PUCSORTHOREF
  2

  9
$PUCSORTHOVIEW
 70
     0
  9
$PUCSORGTOP
 10
0.0
 20
0.0
 30
0.0
  9
$PUCSORGBOTTOM
 10
0.0
 20
0.0
 30
0.0
  9
$PUCSORGLEFT
 10
0.0
 20
0.0
 30
0.0
  9
$PUCSORGRIGHT
 10
0.0
 20
0.0
 30
0.0
  9
$PUCSORGFRONT
 10
0.0
 20
0.0
 30
0.0
  9
$PUCSORGBACK
 10
0.0
 20
0.0
 30
0.0
  9
$USERI1
 70
     0
  9
$USERI2
 70
     0
  9
$USERI3
 70
     0
  9
$USERI4
 70
     0
  9
$USERI5
 70
     0
  9
$USERR1
 40
0.0
  9
$USERR2
 40
0.0
  9
$USERR3
 40
0.0
  9
$USERR4
 40
0.0
  9
$USERR5
 40
0.0
  9
$WORLDVIEW
 70
     1
  9
$SHADEDGE
 70
     3
  9
$SHADEDIF
 70
    70
  9
$TILEMODE
 70
     1
  9
$MAXACTVP
 70
    64
  9
$PINSBASE
 10
0.0
 20
0.0
 30
0.0
  9
$PLIMCHECK
 70
     0
  9
$PEXTMIN
 10
1.0000000000E+20
 20
1.0000000000E+20
 30
1.0000000000E+20
  9
$PEXTMAX
 10
-1.0000000000E+20
 20
-1.0000000000E+20
 30
-1.0000000000E+20
  9
$PLIMMIN
 10
0.0
 20
0.0
  9
$PLIMMAX
 10
420.0
 20
297.0
  9
$UNITMODE
 70
     0
  9
$VISRETAIN
 70
     1
  9
$PLINEGEN
 70
     0
  9
$PSLTSCALE
 70
     1
  9
$TREEDEPTH
 70
  3020
  9
$CMLSTYLE
  2
Standard
  9
$CMLJUST
 70
     0
  9
$CMLSCALE
 40
20.0
  9
$PROXYGRAPHICS
 70
     1
  9
$MEASUREMENT
 70
     1
  9
$CELWEIGHT
370
    -1
  9
$ENDCAPS
280
     0
  9
$JOINSTYLE
280
     0
  9
$LWDISPLAY
290
     1
  9
$INSUNITS
 70
     4
  9
$HYPERLINKBASE
  1

  9
$STYLESHEET
  1

  9
$XEDIT
290
     1
  9
$CEPSNTYPE
380
     0
  9
$PSTYLEMODE
290
     1
  9
$FINGERPRINTGUID
  2
{ff7175c7-ffb1-40d1-9b90-8c5146a7419c}
  9
$VERSIONGUID
  2
{FAEB1C32-E019-11D5-929B-00C0DF256EC4}
  9
$EXTNAMES
290
     1
  9
$PSVPSCALE
 40
0.0
  9
$OLESTARTUP
290
     0
  9
$SORTENTS
280
   127
  9
$INDEXCTL
280
     0
  9
$HIDETEXT
280
     1
  9
$XCLIPFRAME
280
     2
  9
$HALOGAP
280
     0
  9
$OBSCOLOR
 70
   257
  9
$OBSLTYPE
280
     0
  9
$INTERSECTIONDISPLAY
280
     0
  9
$INTERSECTIONCOLOR
 70
   257
  9
$DIMASSOC
280
     2
  9
$PROJECTNAME
  1

  9
$CAMERADISPLAY
290
     0
  9
$LENSLENGTH
 40
50.0
  9
$CAMERAHEIGHT
 40
0.0
  9
$STEPSPERSEC
 40
2.0
  9
$STEPSIZE
 40
6.0
  9
$3DDWFPREC
 40
2.0
  9
$PSOLWIDTH
 40
5.0
  9
$PSOLHEIGHT
 40
80.0
  9
$LOFTANG1
 40
1.5707963268
  9
$LOFTANG2
 40
1.5707963268
  9
$LOFTMAG1
 40
0.0
  9
$LOFTMAG2
 40
0.0
  9
$LOFTPARAM
 70
     7
  9
$LOFTNORMALS
280
     1
  9
$LATITUDE
 40
37.795
  9
$LONGITUDE
 40
-122.394
  9
$NORTHDIRECTION
 40
0.0
  9
$TIMEZONE
 70
 -8000
  9
$LIGHTGLYPHDISPLAY
280
     1
  9
$TILEMODELIGHTSYNCH
280
     1
  9
$CMATERIAL
347
44
  9
$SOLIDHIST
280
     0
  9
$SHOWHIST
280
     1
  9
$DWFFRAME
280
     2
  9
$DGNFRAME
280
     2
  9
$REALWORLDSCALE
290
     1
  9
$INTERFERECOLOR
 62
   256
  9
$CSHADOW
280
     0
  9
$SHADOWPLANELOCATION
 40
0.0
  0
ENDSEC
  0
SECTION
  2
CLASSES
  0
CLASS
  1
ACDBDICTIONARYWDFLT
  2
AcDbDictionaryWithDefault
  3
ObjectDBX Classes
 90
        0
 91
        3
280
     0
281
     0
  0
CLASS
  1
VISUALSTYLE
  2
AcDbVisualStyle
  3
ObjectDBX Classes
 90
     4095
 91
        3
280
     0
281
     0
  0
CLASS
  1
MATERIAL
  2
AcDbMaterial
  3
ObjectDBX Classes
 90
     1153
 91
        3
280
     0
281
     0
  0
CLASS
  1
SCALE
  2
AcDbScale
  3
ObjectDBX Classes
 90
     1153
 91
        3
280
     0
281
     0
  0
CLASS
  1
TABLESTYLE
  2
AcDbTableStyle
  3
ObjectDBX Classes
 90
     4095
 91
        3
280
     0
281
     0
  0
CLASS
  1
MLEADERSTYLE
  2
AcDbMLeaderStyle
  3
ACDB_MLEADERSTYLE_CLASS
 90
     4095
 91
        3
280
     0
281
     0
  0
CLASS
  1
SUN
  2
AcDbSun
  3
SCENEOE
 90
     1153
 91
        3
280
     0
281
     0
  0
CLASS
  1
DICTIONARYVAR
  2
AcDbDictionaryVar
  3
ObjectDBX Classes
 90
        0
 91
        3
280
     0
281
     0
  0
CLASS
  1
CELLSTYLEMAP
  2
AcDbCellStyleMap
  3
ObjectDBX Classes
 90
     1152
 91
        3
280
     0
281
     0
  0
ENDSEC
  0
SECTION
  2
TABLES
  0
TABLE
  2
VPORT
  5
8
330
0
100
AcDbSymbolTable
 70
     1
  0
VPORT
  5
29
330
8
100
AcDbSymbolTableRecord
100
AcDbViewportTableRecord
  2
*Active
 70
     0
 10
0.0
 20
0.0
 11
1.0
 21
1.0
 12
558.8
 22
431.8
 13
0.0
 23
0.0
 14
10.0
 24
10.0
 15
10.0
 25
10.0
 16
0.0
 26
0.0
 36
1.0
 17
0.0
 27
0.0
 37
0.0
 40
863.6
 41
1.2941176471
 42
50.0
 43
0.0
 44
0.0
 50
0.0
 51
0.0
 71
     0
 72
  2000
 73
     1
 74
     3
 75
     0
 76
     0
 77
     0
 78
     0
281
     0
 65
     1
110
0.0
120
0.0
130
0.0
111
1.0
121
0.0
131
0.0
112
0.0
122
1.0
132
0.0
 79
     0
146
0.0
348
2F
 60
     3
 61
     5
292
     1
282
     1
141
0.0
142
0.0
 63
   250
361
6D
  0
ENDTAB
  0
TABLE
  2
LTYPE
  5
5
330
0
100
AcDbSymbolTable
 70
     6
  0
LTYPE
  5
14
330
5
100
AcDbSymbolTableRecord
100
AcDbLinetypeTableRecord
  2
ByBlock
 70
     0
  3

 72
    65
 73
     0
 40
0.0
  0
LTYPE
  5
15
330
5
100
AcDbSymbolTableRecord
100
AcDbLinetypeTableRecord
  2
ByLayer
 70
     0
  3

 72
    65
 73
     0
 40
0.0
  0
LTYPE
  5
16
330
5
100
AcDbSymbolTableRecord
100
AcDbLinetypeTableRecord
  2
Continuous
 70
     0
  3
Solid line
 72
    65
 73
     0
 40
0.0
  0
LTYPE
  5
6E
330
5
100
AcDbSymbolTableRecord
100
AcDbLinetypeTableRecord
  2
HIDDEN
 70
     0
  3
Hidden __ __ __ __ __ __ __ __ __ __ __ __ __ __
 72
    65
 73
     2
 40
1.905
 49
1.27
 74
     0
 49
-0.635
 74
     0
  0
LTYPE
  5
6F
330
5
100
AcDbSymbolTableRecord
100
AcDbLinetypeTableRecord
  2
PHANTOM
 70
     0
  3
Phantom ______  __  __  ______  __  __  ______
 72
    65
 73
     6
 40
12.7
 49
6.35
 74
     0
 49
-1.27
 74
     0
 49
1.27
 74
     0
 49
-1.27
 74
     0
 49
1.27
 74
     0
 49
-1.27
 74
     0
  0
LTYPE
  5
70
330
5
100
AcDbSymbolTableRecord
100
AcDbLinetypeTableRecord
  2
CENTER
 70
     0
  3
Center ____ _ ____ _ ____ _ ____ _ ____ _ ____
 72
    65
 73
     4
 40
10.16
 49
6.35
 74
     0
 49
-1.27
 74
     0
 49
1.27
 74
     0
 49
-1.27
 74
     0
  0
LTYPE
  5
71
330
5
100
AcDbSymbolTableRecord
100
AcDbLinetypeTableRecord
  2
CENTERX2
 70
     0
  3
Center (2x) ________  __  ________  __  _____
 72
    65
 73
     4
 40
20.32
 49
12.7
 74
     0
 49
-2.54
 74
     0
 49
2.54
 74
     0
 49
-2.54
 74
     0
  0
LTYPE
  5
72
330
5
100
AcDbSymbolTableRecord
100
AcDbLinetypeTableRecord
  2
DOT2
 70
     0
  3
Dot (.5x) ........................................
 72
    65
 73
     2
 40
0.635
 49
0.0
 74
     0
 49
-0.635
 74
     0
  0
ENDTAB
  0
TABLE
  2
LAYER
  5
2
330
0
100
AcDbSymbolTable
 70
     3
  0
LAYER
  5
10
330
2
100
AcDbSymbolTableRecord
100
AcDbLayerTableRecord
  2
0
 70
     0
 62
     7
  6
Continuous
370
    -3
390
F
347
46
348
0
  0
LAYER
  5
73
330
2
100
AcDbSymbolTableRecord
100
AcDbLayerTableRecord
  2
SLD-0_0
 70
     0
 62
   179
  6
Continuous
370
    -3
390
F
347
46
348
0
  0
LAYER
  5
74
330
2
100
AcDbSymbolTableRecord
100
AcDbLayerTableRecord
  2
SLD-0
 70
     0
 62
   174
  6
Continuous
370
    -3
390
F
347
46
348
0
  0
ENDTAB
  0
TABLE
  2
STYLE
  5
3
330
0
100
AcDbSymbolTable
 70
     2
  0
STYLE
  5
11
330
3
100
AcDbSymbolTableRecord
100
AcDbTextStyleTableRecord
  2
STANDARD
 70
     0
 40
0.0
 41
1.0
 50
0.0
 71
     0
 42
3.5
  3
GOTHIC.TTF
  4

1001
ACAD
1000
CENTURY GOTHIC
1071
       34
  0
STYLE
  5
1F3
330
3
100
AcDbSymbolTableRecord
100
AcDbTextStyleTableRecord
  2
SLDTEXTSTYLE0
 70
     0
 40
0.0
 41
1.0
 50
0.0
 71
     0
 42
3.5
  3
Arail.ttf
  4

1001
ACAD
1000
Arail.ttf
1071
 33554688
  0
ENDTAB
  0
TABLE
  2
VIEW
  5
6
330
0
100
AcDbSymbolTable
 70
     0
  0
ENDTAB
  0
TABLE
  2
UCS
  5
7
330
0
100
AcDbSymbolTable
 70
     0
  0
ENDTAB
  0
TABLE
  2
APPID
  5
9
330
0
100
AcDbSymbolTable
 70
     1
  0
APPID
  5
12
330
9
100
AcDbSymbolTableRecord
100
AcDbRegAppTableRecord
  2
ACAD
 70
     0
  0
ENDTAB
  0
TABLE
  2
DIMSTYLE
  5
A
330
0
100
AcDbSymbolTable
 70
     1
100
AcDbDimStyleTable
  0
DIMSTYLE
105
27
330
A
100
AcDbSymbolTableRecord
100
AcDbDimStyleTableRecord
  2
ISO-25
 70
     0
 41
2.5
 42
0.625
 43
3.75
 44
1.25
 73
     0
 74
     0
 77
     1
 78
     8
140
2.5
141
2.5
143
0.0393700787
147
0.625
171
     3
172
     1
178
     0
271
     2
272
     2
274
     3
278
    44
283
     0
284
     8
340
11
  0
ENDTAB
  0
TABLE
  2
BLOCK_RECORD
  5
1
330
0
100
AcDbSymbolTable
 70
     1
  0
BLOCK_RECORD
  5
1F
330
1
100
AcDbSymbolTableRecord
100
AcDbBlockTableRecord
  2
*Model_Space
340
22
 70
     0
280
     1
281
     0
  0
BLOCK_RECORD
  5
1B
330
1
100
AcDbSymbolTableRecord
100
AcDbBlockTableRecord
  2
*Paper_Space
340
1E
 70
     0
280
     1
281
     0
  0
BLOCK_RECORD
  5
23
330
1
100
AcDbSymbolTableRecord
100
AcDbBlockTableRecord
  2
*Paper_Space0
340
26
 70
     0
280
     1
281
     0
  0
ENDTAB
  0
ENDSEC
  0
SECTION
  2
BLOCKS
  0
BLOCK
  5
20
330
1F
100
AcDbEntity
  8
0
100
AcDbBlockBegin
  2
*Model_Space
 70
     0
 10
0.0
 20
0.0
 30
0.0
  3
*Model_Space
  1

  0
ENDBLK
  5
21
330
1F
100
AcDbEntity
  8
0
100
AcDbBlockEnd
  0
BLOCK
  5
1C
330
1B
100
AcDbEntity
 67
     1
  8
0
100
AcDbBlockBegin
  2
*Paper_Space
 70
     0
 10
0.0
 20
0.0
 30
0.0
  3
*Paper_Space
  1

  0
ENDBLK
  5
1D
330
1B
100
AcDbEntity
 67
     1
  8
0
100
AcDbBlockEnd
  0
BLOCK
  5
24
330
23
100
AcDbEntity
  8
0
100
AcDbBlockBegin
  2
*Paper_Space0
 70
     0
 10
0.0
 20
0.0
 30
0.0
  3
*Paper_Space0
  1

  0
ENDBLK
  5
25
330
23
100
AcDbEntity
  8
0
100
AcDbBlockEnd
  0
ENDSEC
  0
SECTION
  2
ENTITIES
  0
LINE
  5
75
330
1F
100
AcDbEntity
  8
SLD-0
100
AcDbLine
 10
384.429859
 20
31.316912
 30
0.0
 11
384.429859
 21
51.316912
 31
0.0
  0
LINE
  5
76
330
1F
100
AcDbEntity
  8
SLD-0
100
AcDbLine
 10
384.429859
 20
51.316912
 30
0.0
 11
326.429858
 21
51.316912
 31
0.0
  0
LINE
  5
77
330
1F
100
AcDbEntity
  8
SLD-0
100
AcDbLine
 10
326.429858
 20
51.316912
 30
0.0
 11
326.429858
 21
31.316912
 31
0.0
  0
LINE
  5
78
330
1F
100
AcDbEntity
  8
SLD-0
100
AcDbLine
 10
326.429858
 20
31.316912
 30
0.0
 11
384.429859
 21
31.316912
 31
0.0
  0
LINE
  5
79
330
1F
100
AcDbEntity
  8
SLD-0
100
AcDbLine
 10
380.4798605
 20
70.8169135
 30
0.0
 11
378.9798625
 21
70.8169135
 31
0.0
  0
LINE
  5
7A
330
1F
100
AcDbEntity
  8
SLD-0
100
AcDbLine
 10
378.9798625
 20
70.8169135
 30
0.0
 11
378.9798625
 21
66.8169135
 31
0.0
  0
LINE
  5
7B
330
1F
100
AcDbEntity
  8
SLD-0
100
AcDbLine
 10
378.9798625
 20
66.8169135
 30
0.0
 11
385.8798625
 21
66.8169135
 31
0.0
  0
LINE
  5
7C
330
1F
100
AcDbEntity
  8
SLD-0
100
AcDbLine
 10
385.8798625
 20
66.8169135
 30
0.0
 11
385.8798625
 21
70.8169135
 31
0.0
  0
LINE
  5
7D
330
1F
100
AcDbEntity
  8
SLD-0
100
AcDbLine
 10
385.8798625
 20
70.8169135
 30
0.0
 11
384.3798615
 21
70.8169135
 31
0.0
  0
LINE
  5
7E
330
1F
100
AcDbEntity
  8
SLD-0
100
AcDbLine
 10
384.3798615
 20
70.8169135
 30
0.0
 11
384.3798615
 21
76.3169125
 31
0.0
  0
LINE
  5
7F
330
1F
100
AcDbEntity
  8
SLD-0
100
AcDbLine
 10
388.329862
 20
78.31691
 30
0.0
 11
386.379863
 21
78.31691
 31
0.0
  0
LINE
  5
80
330
1F
100
AcDbEntity
  8
SLD-0
100
AcDbLine
 10
388.329862
 20
83.176914
 30
0.0
 11
388.329862
 21
78.31691
 31
0.0
  0
LINE
  5
81
330
1F
100
AcDbEntity
  8
SLD-0
100
AcDbLine
 10
391.4250485071
 20
-0.683088
 30
0.0
 11
388.4698585071
 21
-0.683088
 31
0.0
  0
LINE
  5
82
330
1F
100
AcDbEntity
  8
SLD-0
100
AcDbLine
 10
388.329861
 20
-0.543088
 30
0.0
 11
388.329861
 21
4.316914
 31
0.0
  0
LINE
  5
83
330
1F
100
AcDbEntity
  8
SLD-0
100
AcDbLine
 10
388.329861
 20
4.316914
 30
0.0
 11
386.379862
 21
4.316914
 31
0.0
  0
LINE
  5
84
330
1F
100
AcDbEntity
  8
SLD-0
100
AcDbLine
 10
384.3798605
 20
11.8169105
 30
0.0
 11
384.3798605
 21
6.3169115
 31
0.0
  0
LINE
  5
85
330
1F
100
AcDbEntity
  8
SLD-0
100
AcDbLine
 10
385.8798615
 20
11.8169105
 30
0.0
 11
384.3798605
 21
11.8169105
 31
0.0
  0
LINE
  5
86
330
1F
100
AcDbEntity
  8
SLD-0
100
AcDbLine
 10
385.8798615
 20
15.8169105
 30
0.0
 11
385.8798615
 21
11.8169105
 31
0.0
  0
LINE
  5
87
330
1F
100
AcDbEntity
  8
SLD-0
100
AcDbLine
 10
378.9798615
 20
15.8169105
 30
0.0
 11
385.8798615
 21
15.8169105
 31
0.0
  0
LINE
  5
88
330
1F
100
AcDbEntity
  8
SLD-0
100
AcDbLine
 10
378.9798615
 20
11.8169105
 30
0.0
 11
378.9798615
 21
15.8169105
 31
0.0
  0
LINE
  5
89
330
1F
100
AcDbEntity
  8
SLD-0
100
AcDbLine
 10
380.4798595
 20
11.8169105
 30
0.0
 11
378.9798615
 21
11.8169105
 31
0.0
  0
LINE
  5
8A
330
1F
100
AcDbEntity
  8
SLD-0
100
AcDbLine
 10
380.4798595
 20
6.3169115
 30
0.0
 11
380.4798595
 21
11.8169105
 31
0.0
  0
LINE
  5
8B
330
1F
100
AcDbEntity
  8
SLD-0
100
AcDbLine
 10
378.4798585
 20
4.3169135
 30
0.0
 11
352.3798605
 21
4.3169135
 31
0.0
  0
LINE
  5
8C
330
1F
100
AcDbEntity
  8
SLD-0
100
AcDbLine
 10
350.37986
 20
6.316913
 30
0.0
 11
350.37986
 21
11.816912
 31
0.0
  0
LINE
  5
8D
330
1F
100
AcDbEntity
  8
SLD-0
100
AcDbLine
 10
350.37986
 20
11.816912
 30
0.0
 11
351.879859
 21
11.816912
 31
0.0
  0
LINE
  5
8E
330
1F
100
AcDbEntity
  8
SLD-0
100
AcDbLine
 10
351.879859
 20
11.816912
 30
0.0
 11
351.879859
 21
15.816912
 31
0.0
  0
LINE
  5
8F
330
1F
100
AcDbEntity
  8
SLD-0
100
AcDbLine
 10
351.879859
 20
15.816912
 30
0.0
 11
344.979859
 21
15.816912
 31
0.0
  0
LINE
  5
90
330
1F
100
AcDbEntity
  8
SLD-0
100
AcDbLine
 10
344.979859
 20
15.816912
 30
0.0
 11
344.979859
 21
11.816912
 31
0.0
  0
LINE
  5
91
330
1F
100
AcDbEntity
  8
SLD-0
100
AcDbLine
 10
344.979859
 20
11.816912
 30
0.0
 11
346.47986
 21
11.816912
 31
0.0
  0
LINE
  5
92
330
1F
100
AcDbEntity
  8
SLD-0
100
AcDbLine
 10
346.47986
 20
11.816912
 30
0.0
 11
346.47986
 21
6.316913
 31
0.0
  0
LINE
  5
93
330
1F
100
AcDbEntity
  8
SLD-0
100
AcDbLine
 10
344.4798595
 20
4.3169135
 30
0.0
 11
342.5298585
 21
4.3169135
 31
0.0
  0
LINE
  5
94
330
1F
100
AcDbEntity
  8
SLD-0
100
AcDbLine
 10
342.5298585
 20
4.3169135
 30
0.0
 11
342.5298585
 21
-0.5430885
 31
0.0
  0
LINE
  5
95
330
1F
100
AcDbEntity
  8
SLD-0
100
AcDbLine
 10
342.3898594336
 20
-0.683089
 30
0.0
 11
339.4346694336
 21
-0.683089
 31
0.0
  0
LINE
  5
96
330
1F
100
AcDbEntity
  8
SLD-0
100
AcDbLine
 10
342.529858
 20
78.316911
 30
0.0
 11
342.529858
 21
83.176913
 31
0.0
  0
LINE
  5
97
330
1F
100
AcDbEntity
  8
SLD-0
100
AcDbLine
 10
344.479859
 20
78.316911
 30
0.0
 11
342.529858
 21
78.316911
 31
0.0
  0
LINE
  5
98
330
1F
100
AcDbEntity
  8
SLD-0
100
AcDbLine
 10
346.47986
 20
70.816913
 30
0.0
 11
346.47986
 21
76.316911
 31
0.0
  0
LINE
  5
99
330
1F
100
AcDbEntity
  8
SLD-0
100
AcDbLine
 10
344.979859
 20
70.816913
 30
0.0
 11
346.47986
 21
70.816913
 31
0.0
  0
LINE
  5
9A
330
1F
100
AcDbEntity
  8
SLD-0
100
AcDbLine
 10
344.979859
 20
66.816912
 30
0.0
 11
344.979859
 21
70.816913
 31
0.0
  0
LINE
  5
9B
330
1F
100
AcDbEntity
  8
SLD-0
100
AcDbLine
 10
351.879859
 20
66.816912
 30
0.0
 11
344.979859
 21
66.816912
 31
0.0
  0
LINE
  5
9C
330
1F
100
AcDbEntity
  8
SLD-0
100
AcDbLine
 10
351.879859
 20
70.816913
 30
0.0
 11
351.879859
 21
66.816912
 31
0.0
  0
LINE
  5
9D
330
1F
100
AcDbEntity
  8
SLD-0
100
AcDbLine
 10
350.37986
 20
70.816913
 30
0.0
 11
351.879859
 21
70.816913
 31
0.0
  0
LINE
  5
9E
330
1F
100
AcDbEntity
  8
SLD-0
100
AcDbLine
 10
350.37986
 20
76.316911
 30
0.0
 11
350.37986
 21
70.816913
 31
0.0
  0
LINE
  5
9F
330
1F
100
AcDbEntity
  8
SLD-0
100
AcDbLine
 10
380.4798605
 20
76.3169125
 30
0.0
 11
380.4798605
 21
70.8169135
 31
0.0
  0
LINE
  5
A0
330
1F
100
AcDbEntity
  8
SLD-0
100
AcDbLine
 10
378.479859
 20
78.316911
 30
0.0
 11
352.379861
 21
78.316911
 31
0.0
  0
LINE
  5
A1
330
1F
100
AcDbEntity
  8
SLD-0
100
AcDbLine
 10
482.406113
 20
70.566909
 30
0.0
 11
480.906114
 21
70.566909
 31
0.0
  0
LINE
  5
A2
330
1F
100
AcDbEntity
  8
SLD-0
100
AcDbLine
 10
480.906114
 20
70.566909
 30
0.0
 11
480.906114
 21
66.566908
 31
0.0
  0
LINE
  5
A3
330
1F
100
AcDbEntity
  8
SLD-0
100
AcDbLine
 10
480.906114
 20
66.566908
 30
0.0
 11
487.806114
 21
66.566908
 31
0.0
  0
LINE
  5
A4
330
1F
100
AcDbEntity
  8
SLD-0
100
AcDbLine
 10
487.806114
 20
66.566908
 30
0.0
 11
487.806114
 21
70.566909
 31
0.0
  0
LINE
  5
A5
330
1F
100
AcDbEntity
  8
SLD-0
100
AcDbLine
 10
487.806114
 20
70.566909
 30
0.0
 11
486.306113
 21
70.566909
 31
0.0
  0
LINE
  5
A6
330
1F
100
AcDbEntity
  8
SLD-0
100
AcDbLine
 10
486.306113
 20
70.566909
 30
0.0
 11
486.306113
 21
76.066907
 31
0.0
  0
LINE
  5
A7
330
1F
100
AcDbEntity
  8
SLD-0
100
AcDbLine
 10
490.2561115
 20
78.066908
 30
0.0
 11
488.306111
 21
78.066908
 31
0.0
  0
LINE
  5
A8
330
1F
100
AcDbEntity
  8
SLD-0
100
AcDbLine
 10
490.2561115
 20
82.926911
 30
0.0
 11
490.2561115
 21
78.066908
 31
0.0
  0
LINE
  5
A9
330
1F
100
AcDbEntity
  8
SLD-0
100
AcDbLine
 10
490.2561115
 20
-0.7930905
 30
0.0
 11
490.2561115
 21
4.0669115
 31
0.0
  0
LINE
  5
AA
330
1F
100
AcDbEntity
  8
SLD-0
100
AcDbLine
 10
490.2561115
 20
4.0669115
 30
0.0
 11
488.3061115
 21
4.0669115
 31
0.0
  0
LINE
  5
AB
330
1F
100
AcDbEntity
  8
SLD-0
100
AcDbLine
 10
486.306113
 20
11.566912
 30
0.0
 11
486.306113
 21
6.066913
 31
0.0
  0
LINE
  5
AC
330
1F
100
AcDbEntity
  8
SLD-0
100
AcDbLine
 10
487.806114
 20
11.566912
 30
0.0
 11
486.306113
 21
11.566912
 31
0.0
  0
LINE
  5
AD
330
1F
100
AcDbEntity
  8
SLD-0
100
AcDbLine
 10
487.806114
 20
15.566912
 30
0.0
 11
487.806114
 21
11.566912
 31
0.0
  0
LINE
  5
AE
330
1F
100
AcDbEntity
  8
SLD-0
100
AcDbLine
 10
480.906114
 20
15.566912
 30
0.0
 11
487.806114
 21
15.566912
 31
0.0
  0
LINE
  5
AF
330
1F
100
AcDbEntity
  8
SLD-0
100
AcDbLine
 10
480.906114
 20
11.566912
 30
0.0
 11
480.906114
 21
15.566912
 31
0.0
  0
LINE
  5
B0
330
1F
100
AcDbEntity
  8
SLD-0
100
AcDbLine
 10
482.406113
 20
11.566912
 30
0.0
 11
480.906114
 21
11.566912
 31
0.0
  0
LINE
  5
B1
330
1F
100
AcDbEntity
  8
SLD-0
100
AcDbLine
 10
482.406113
 20
6.066913
 30
0.0
 11
482.406113
 21
11.566912
 31
0.0
  0
LINE
  5
B2
330
1F
100
AcDbEntity
  8
SLD-0
100
AcDbLine
 10
480.406116
 20
4.06691
 30
0.0
 11
454.306117
 21
4.06691
 31
0.0
  0
LINE
  5
B3
330
1F
100
AcDbEntity
  8
SLD-0
100
AcDbLine
 10
452.306118
 20
6.066911
 30
0.0
 11
452.306118
 21
11.56691
 31
0.0
  0
LINE
  5
B4
330
1F
100
AcDbEntity
  8
SLD-0
100
AcDbLine
 10
452.306118
 20
11.56691
 30
0.0
 11
453.806117
 21
11.56691
 31
0.0
  0
LINE
  5
B5
330
1F
100
AcDbEntity
  8
SLD-0
100
AcDbLine
 10
453.806117
 20
11.56691
 30
0.0
 11
453.806117
 21
15.56691
 31
0.0
  0
LINE
  5
B6
330
1F
100
AcDbEntity
  8
SLD-0
100
AcDbLine
 10
453.806117
 20
15.56691
 30
0.0
 11
446.906117
 21
15.56691
 31
0.0
  0
LINE
  5
B7
330
1F
100
AcDbEntity
  8
SLD-0
100
AcDbLine
 10
446.906117
 20
15.56691
 30
0.0
 11
446.906117
 21
11.56691
 31
0.0
  0
LINE
  5
B8
330
1F
100
AcDbEntity
  8
SLD-0
100
AcDbLine
 10
446.906117
 20
11.56691
 30
0.0
 11
448.406118
 21
11.56691
 31
0.0
  0
LINE
  5
B9
330
1F
100
AcDbEntity
  8
SLD-0
100
AcDbLine
 10
448.406118
 20
11.56691
 30
0.0
 11
448.406118
 21
6.066911
 31
0.0
  0
LINE
  5
BA
330
1F
100
AcDbEntity
  8
SLD-0
100
AcDbLine
 10
446.4061215
 20
4.0669075
 30
0.0
 11
444.4561205
 21
4.0669075
 31
0.0
  0
LINE
  5
BB
330
1F
100
AcDbEntity
  8
SLD-0
100
AcDbLine
 10
444.4561205
 20
4.0669075
 30
0.0
 11
444.4561205
 21
-0.7930955
 31
0.0
  0
LINE
  5
BC
330
1F
100
AcDbEntity
  8
SLD-0
100
AcDbLine
 10
444.45612
 20
78.066913
 30
0.0
 11
444.4561205
 21
82.926916
 31
0.0
  0
LINE
  5
BD
330
1F
100
AcDbEntity
  8
SLD-0
100
AcDbLine
 10
446.406121
 20
78.066913
 30
0.0
 11
444.45612
 21
78.066913
 31
0.0
  0
LINE
  5
BE
330
1F
100
AcDbEntity
  8
SLD-0
100
AcDbLine
 10
448.406118
 20
70.566911
 30
0.0
 11
448.406118
 21
76.066909
 31
0.0
  0
LINE
  5
BF
330
1F
100
AcDbEntity
  8
SLD-0
100
AcDbLine
 10
446.906117
 20
70.566911
 30
0.0
 11
448.406118
 21
70.566911
 31
0.0
  0
LINE
  5
C0
330
1F
100
AcDbEntity
  8
SLD-0
100
AcDbLine
 10
446.906117
 20
66.56691
 30
0.0
 11
446.906117
 21
70.566911
 31
0.0
  0
LINE
  5
C1
330
1F
100
AcDbEntity
  8
SLD-0
100
AcDbLine
 10
453.806117
 20
66.56691
 30
0.0
 11
446.906117
 21
66.56691
 31
0.0
  0
LINE
  5
C2
330
1F
100
AcDbEntity
  8
SLD-0
100
AcDbLine
 10
453.806117
 20
70.566911
 30
0.0
 11
453.806117
 21
66.56691
 31
0.0
  0
LINE
  5
C3
330
1F
100
AcDbEntity
  8
SLD-0
100
AcDbLine
 10
452.306118
 20
70.566911
 30
0.0
 11
453.806117
 21
70.566911
 31
0.0
  0
LINE
  5
C4
330
1F
100
AcDbEntity
  8
SLD-0
100
AcDbLine
 10
452.306118
 20
76.066909
 30
0.0
 11
452.306118
 21
70.566911
 31
0.0
  0
LINE
  5
C5
330
1F
100
AcDbEntity
  8
SLD-0
100
AcDbLine
 10
482.406113
 20
76.066907
 30
0.0
 11
482.406113
 21
70.566909
 31
0.0
  0
LINE
  5
C6
330
1F
100
AcDbEntity
  8
SLD-0
100
AcDbLine
 10
477.506119
 20
31.31691225
 30
0.0
 11
477.506119
 21
38.46691225
 31
0.0
  0
LINE
  5
C7
330
1F
100
AcDbEntity
  8
SLD-0
100
AcDbLine
 10
477.506119
 20
43.66691225
 30
0.0
 11
477.506119
 21
50.81690825
 31
0.0
  0
LINE
  5
C8
330
1F
100
AcDbEntity
  8
SLD-0
100
AcDbLine
 10
477.506119
 20
50.81690825
 30
0.0
 11
437.20612
 21
50.81690825
 31
0.0
  0
LINE
  5
C9
330
1F
100
AcDbEntity
  8
SLD-0
100
AcDbLine
 10
437.20612
 20
50.81690825
 30
0.0
 11
437.20612
 21
43.66690825
 31
0.0
  0
LINE
  5
CA
330
1F
100
AcDbEntity
  8
SLD-0
100
AcDbLine
 10
437.20612
 20
38.46691225
 30
0.0
 11
437.20612
 21
31.31691225
 31
0.0
  0
LINE
  5
CB
330
1F
100
AcDbEntity
  8
SLD-0
100
AcDbLine
 10
437.20612
 20
31.31691225
 30
0.0
 11
477.506119
 21
31.31691225
 31
0.0
  0
LINE
  5
CC
330
1F
100
AcDbEntity
  8
SLD-0
100
AcDbLine
 10
480.406116
 20
78.06691
 30
0.0
 11
454.306117
 21
78.06691
 31
0.0
  0
LINE
  5
CD
330
1F
100
AcDbEntity
  8
SLD-0
100
AcDbLine
 10
430.856118
 20
40.46691025
 30
0.0
 11
435.206118
 21
40.46691025
 31
0.0
  0
LINE
  5
CE
330
1F
100
AcDbEntity
  8
SLD-0
100
AcDbLine
 10
479.506119
 20
40.46691225
 30
0.0
 11
483.856119
 21
40.46691225
 31
0.0
  0
LINE
  5
CF
330
1F
100
AcDbEntity
  8
SLD-0
100
AcDbLine
 10
430.856118
 20
41.66691025
 30
0.0
 11
435.206118
 21
41.66691025
 31
0.0
  0
LINE
  5
D0
330
1F
100
AcDbEntity
  8
SLD-0
100
AcDbLine
 10
479.506119
 20
41.66691225
 30
0.0
 11
483.856119
 21
41.66691225
 31
0.0
  0
LINE
  5
D1
330
1F
100
AcDbEntity
  8
SLD-0
100
AcDbLine
 10
346.47986
 20
70.816913
 30
0.0
 11
350.37986
 21
70.816913
 31
0.0
  0
LINE
  5
D2
330
1F
100
AcDbEntity
  8
SLD-0
100
AcDbLine
 10
380.4798605
 20
70.8169135
 30
0.0
 11
384.3798615
 21
70.8169135
 31
0.0
  0
LINE
  5
D3
330
1F
100
AcDbEntity
  8
SLD-0
100
AcDbLine
 10
346.47986
 20
11.816912
 30
0.0
 11
350.37986
 21
11.816912
 31
0.0
  0
LINE
  5
D4
330
1F
100
AcDbEntity
  8
SLD-0
100
AcDbLine
 10
380.4798595
 20
11.8169105
 30
0.0
 11
384.3798605
 21
11.8169105
 31
0.0
  0
LINE
  5
D5
330
1F
100
AcDbEntity
  8
SLD-0
100
AcDbLine
 10
448.406118
 20
70.566911
 30
0.0
 11
452.306118
 21
70.566911
 31
0.0
  0
LINE
  5
D6
330
1F
100
AcDbEntity
  8
SLD-0
100
AcDbLine
 10
482.406113
 20
70.566909
 30
0.0
 11
486.306113
 21
70.566909
 31
0.0
  0
LINE
  5
D7
330
1F
100
AcDbEntity
  8
SLD-0
100
AcDbLine
 10
448.406118
 20
11.56691
 30
0.0
 11
452.306118
 21
11.56691
 31
0.0
  0
LINE
  5
D8
330
1F
100
AcDbEntity
  8
SLD-0
100
AcDbLine
 10
482.406113
 20
11.566912
 30
0.0
 11
486.306113
 21
11.566912
 31
0.0
  0
LINE
  5
D9
330
1F
100
AcDbEntity
  8
SLD-0
100
AcDbLine
 10
766.739174
 20
12.816912
 30
0.0
 11
766.739174
 21
19.966912
 31
0.0
  0
LINE
  5
DA
330
1F
100
AcDbEntity
  8
SLD-0
100
AcDbLine
 10
706.516581
 20
22.566912
 30
0.0
 11
779.475975
 21
22.566912
 31
0.0
  0
LINE
  5
DB
330
1F
100
AcDbEntity
  8
SLD-0
100
AcDbLine
 10
575.296862
 20
219.234125
 30
0.0
 11
570.436863
 21
219.234125
 31
0.0
  0
LINE
  5
DC
330
1F
100
AcDbEntity
  8
SLD-0
100
AcDbLine
 10
143.0061914416
 20
91.2462337128
 30
0.0
 11
143.1186754416
 21
90.9898197128
 31
0.0
  0
LINE
  5
DD
330
1F
100
AcDbEntity
  8
SLD-0
100
AcDbLine
 10
178.6407398638
 20
55.4677533289
 30
0.0
 11
178.8971518638
 21
55.3552733289
 31
0.0
  0
LINE
  5
DE
330
1F
100
AcDbEntity
  8
SLD-0
100
AcDbLine
 10
235.2658204278
 20
55.3552729892
 30
0.0
 11
235.5222344278
 21
55.4677529892
 31
0.0
  0
LINE
  5
DF
330
1F
100
AcDbEntity
  8
SLD-0
100
AcDbLine
 10
271.1567805319
 20
91.2462337525
 30
0.0
 11
271.0443025319
 21
90.9898197525
 31
0.0
  0
LINE
  5
E0
330
1F
100
AcDbEntity
  8
SLD-0
100
AcDbLine
 10
271.0443025319
 20
147.8713137525
 30
0.0
 11
271.1567805319
 21
147.6149017525
 31
0.0
  0
LINE
  5
E1
330
1F
100
AcDbEntity
  8
SLD-0
100
AcDbLine
 10
235.2658205319
 20
183.5058617525
 30
0.0
 11
235.5222335319
 21
183.3933797525
 31
0.0
  0
LINE
  5
E2
330
1F
100
AcDbEntity
  8
SLD-0
100
AcDbLine
 10
178.6407395319
 20
183.3933797525
 30
0.0
 11
178.8971525319
 21
183.5058617525
 31
0.0
  0
LINE
  5
E3
330
1F
100
AcDbEntity
  8
SLD-0
100
AcDbLine
 10
111.6993348425
 20
91.2462335536
 30
0.0
 11
111.5868568425
 21
90.9898195536
 31
0.0
  0
LINE
  5
E4
330
1F
100
AcDbEntity
  8
SLD-0
100
AcDbLine
 10
117.6240434878
 20
56.4305635644
 30
0.0
 11
117.6240444878
 21
71.6844325644
 31
0.0
  0
LINE
  5
E5
330
1F
100
AcDbEntity
  8
SLD-0
100
AcDbLine
 10
74.420533
 20
151.176804
 30
0.0
 11
89.269776
 21
166.026047
 31
0.0
  0
LINE
  5
E6
330
1F
100
AcDbEntity
  8
SLD-0
100
AcDbLine
 10
1.028564
 20
77.784835
 30
0.0
 11
15.877807
 21
92.634078
 31
0.0
  0
LINE
  5
E7
330
1F
100
AcDbEntity
  8
SLD-0
100
AcDbLine
 10
75.8083748425
 20
183.5058615536
 30
0.0
 11
76.0647878425
 21
183.3933795536
 31
0.0
  0
LINE
  5
E8
330
1F
100
AcDbEntity
  8
SLD-0
100
AcDbLine
 10
89.269774
 20
72.835089
 30
0.0
 11
74.420533
 21
87.684332
 31
0.0
  0
LINE
  5
E9
330
1F
100
AcDbEntity
  8
SLD-0
100
AcDbLine
 10
-22.375958
 20
71.684436
 30
0.0
 11
-22.375957
 21
56.430568
 31
0.0
  0
LINE
  5
EA
330
1F
100
AcDbEntity
  8
SLD-0
100
AcDbLine
 10
95.3701739878
 20
49.4305640644
 30
0.0
 11
110.6240419878
 21
49.4305660644
 31
0.0
  0
LINE
  5
EB
330
1F
100
AcDbEntity
  8
SLD-0
100
AcDbLine
 10
19.1832938425
 20
183.3933795536
 30
0.0
 11
19.4397068425
 21
183.5058615536
 31
0.0
  0
LINE
  5
EC
330
1F
100
AcDbEntity
  8
SLD-0
100
AcDbLine
 10
-16.4512535584
 20
91.2462337128
 30
0.0
 11
-16.3387695584
 21
90.9898197128
 31
0.0
  0
LINE
  5
ED
330
1F
100
AcDbEntity
  8
SLD-0
100
AcDbLine
 10
5.97831
 20
166.026046
 30
0.0
 11
20.827553
 21
151.176804
 31
0.0
  0
LINE
  5
EE
330
1F
100
AcDbEntity
  8
SLD-0
100
AcDbLine
 10
117.6240449878
 20
167.1767010428
 30
0.0
 11
117.6240439878
 21
182.4305700428
 31
0.0
  0
LINE
  5
EF
330
1F
100
AcDbEntity
  8
SLD-0
100
AcDbLine
 10
79.370279
 20
92.634077
 30
0.0
 11
94.219522
 21
77.784835
 31
0.0
  0
LINE
  5
F0
330
1F
100
AcDbEntity
  8
SLD-0
100
AcDbLine
 10
110.6240419878
 20
189.4305690428
 30
0.0
 11
95.3701739878
 21
189.4305690428
 31
0.0
  0
LINE
  5
F1
330
1F
100
AcDbEntity
  8
SLD-0
100
AcDbLine
 10
19.1832938425
 20
55.4677535536
 30
0.0
 11
19.4397068425
 21
55.3552735536
 31
0.0
  0
LINE
  5
F2
330
1F
100
AcDbEntity
  8
SLD-0
100
AcDbLine
 10
94.219522
 20
161.0763
 30
0.0
 11
79.370279
 21
146.227057
 31
0.0
  0
LINE
  5
F3
330
1F
100
AcDbEntity
  8
SLD-0
100
AcDbLine
 10
-15.375957
 20
49.430568
 30
0.0
 11
-0.122089
 21
49.430567
 31
0.0
  0
LINE
  5
F4
330
1F
100
AcDbEntity
  8
SLD-0
100
AcDbLine
 10
75.8083748425
 20
55.3552735536
 30
0.0
 11
76.0647878425
 21
55.4677535536
 31
0.0
  0
LINE
  5
F5
330
1F
100
AcDbEntity
  8
SLD-0
100
AcDbLine
 10
20.827553
 20
87.684331
 30
0.0
 11
5.97831
 21
72.835088
 31
0.0
  0
LINE
  5
F6
330
1F
100
AcDbEntity
  8
SLD-0
100
AcDbLine
 10
-0.1220889375
 20
189.4305661772
 30
0.0
 11
-15.3759569375
 21
189.4305661772
 31
0.0
  0
LINE
  5
F7
330
1F
100
AcDbEntity
  8
SLD-0
100
AcDbLine
 10
-22.3759569375
 20
182.4305661772
 30
0.0
 11
-22.3759589375
 21
167.1766971772
 31
0.0
  0
LINE
  5
F8
330
1F
100
AcDbEntity
  8
SLD-0
100
AcDbLine
 10
15.877805
 20
146.227058
 30
0.0
 11
1.028563
 21
161.0763
 31
0.0
  0
LINE
  5
F9
330
1F
100
AcDbEntity
  8
SLD-0
100
AcDbLine
 10
111.5868568425
 20
147.8713135536
 30
0.0
 11
111.6993348425
 21
147.6149015536
 31
0.0
  0
LINE
  5
FA
330
1F
100
AcDbEntity
  8
SLD-0
100
AcDbLine
 10
165.435755
 20
166.026046
 30
0.0
 11
180.284998
 21
151.176804
 31
0.0
  0
LINE
  5
FB
330
1F
100
AcDbEntity
  8
SLD-0
100
AcDbLine
 10
175.33525
 20
146.227058
 30
0.0
 11
160.486008
 21
161.0763
 31
0.0
  0
LINE
  5
FC
330
1F
100
AcDbEntity
  8
SLD-0
100
AcDbLine
 10
160.486009
 20
77.784835
 30
0.0
 11
175.335252
 21
92.634078
 31
0.0
  0
LINE
  5
FD
330
1F
100
AcDbEntity
  8
SLD-0
100
AcDbLine
 10
180.284998
 20
87.684331
 30
0.0
 11
165.435755
 21
72.835088
 31
0.0
  0
LINE
  5
FE
330
1F
100
AcDbEntity
  8
SLD-0
100
AcDbLine
 10
248.727219
 20
72.835089
 30
0.0
 11
233.877978
 21
87.684332
 31
0.0
  0
LINE
  5
FF
330
1F
100
AcDbEntity
  8
SLD-0
100
AcDbLine
 10
238.827724
 20
92.634077
 30
0.0
 11
253.676967
 21
77.784835
 31
0.0
  0
LINE
  5
100
330
1F
100
AcDbEntity
  8
SLD-0
100
AcDbLine
 10
253.676967
 20
161.0763
 30
0.0
 11
238.827724
 21
146.227057
 31
0.0
  0
LINE
  5
101
330
1F
100
AcDbEntity
  8
SLD-0
100
AcDbLine
 10
233.877978
 20
151.176804
 30
0.0
 11
248.727221
 21
166.026047
 31
0.0
  0
LINE
  5
102
330
1F
100
AcDbEntity
  8
SLD-0
100
AcDbLine
 10
270.0814878349
 20
189.4305692664
 30
0.0
 11
254.8276198349
 21
189.4305692664
 31
0.0
  0
LINE
  5
103
330
1F
100
AcDbEntity
  8
SLD-0
100
AcDbLine
 10
277.0814894183
 20
56.4305603103
 30
0.0
 11
277.0814914183
 21
71.6844303103
 31
0.0
  0
LINE
  5
104
330
1F
100
AcDbEntity
  8
SLD-0
100
AcDbLine
 10
144.081488
 20
49.430568
 30
0.0
 11
159.335356
 21
49.430567
 31
0.0
  0
LINE
  5
105
330
1F
100
AcDbEntity
  8
SLD-0
100
AcDbLine
 10
137.081488382
 20
182.4305663553
 30
0.0
 11
137.081486382
 21
167.1766963553
 31
0.0
  0
LINE
  5
106
330
1F
100
AcDbEntity
  8
SLD-0
100
AcDbLine
 10
159.335356382
 20
189.4305663553
 30
0.0
 11
144.081488382
 21
189.4305663553
 31
0.0
  0
LINE
  5
107
330
1F
100
AcDbEntity
  8
SLD-0
100
AcDbLine
 10
137.081487
 20
71.684436
 30
0.0
 11
137.081488
 21
56.430568
 31
0.0
  0
LINE
  5
108
330
1F
100
AcDbEntity
  8
SLD-0
100
AcDbLine
 10
254.8276199183
 20
49.4305628103
 30
0.0
 11
270.0814879183
 21
49.4305638103
 31
0.0
  0
LINE
  5
109
330
1F
100
AcDbEntity
  8
SLD-0
100
AcDbLine
 10
277.0814903349
 20
167.1767007664
 30
0.0
 11
277.0814893349
 21
182.4305707664
 31
0.0
  0
LINE
  5
10A
330
1F
100
AcDbEntity
  8
SLD-0
100
AcDbLine
 10
766.739174
 20
25.166912
 30
0.0
 11
766.739174
 21
32.316908
 31
0.0
  0
LINE
  5
10B
330
1F
100
AcDbEntity
  8
SLD-0
100
AcDbLine
 10
766.739174
 20
32.316908
 30
0.0
 11
726.439175
 21
32.316908
 31
0.0
  0
LINE
  5
10C
330
1F
100
AcDbEntity
  8
SLD-0
100
AcDbLine
 10
726.439175
 20
32.316908
 30
0.0
 11
726.439175
 21
25.166908
 31
0.0
  0
LINE
  5
10D
330
1F
100
AcDbEntity
  8
SLD-0
100
AcDbLine
 10
726.439175
 20
19.966912
 30
0.0
 11
726.439175
 21
12.816912
 31
0.0
  0
LINE
  5
10E
330
1F
100
AcDbEntity
  8
SLD-0
100
AcDbLine
 10
726.439175
 20
12.816912
 30
0.0
 11
766.739174
 21
12.816912
 31
0.0
  0
LINE
  5
10F
330
1F
100
AcDbEntity
  8
SLD-0
100
AcDbLine
 10
720.089173
 20
21.96691
 30
0.0
 11
724.439173
 21
21.96691
 31
0.0
  0
LINE
  5
110
330
1F
100
AcDbEntity
  8
SLD-0
100
AcDbLine
 10
768.739174
 20
21.966912
 30
0.0
 11
773.089174
 21
21.966912
 31
0.0
  0
LINE
  5
111
330
1F
100
AcDbEntity
  8
SLD-0
100
AcDbLine
 10
720.089173
 20
23.16691
 30
0.0
 11
724.439173
 21
23.16691
 31
0.0
  0
LINE
  5
112
330
1F
100
AcDbEntity
  8
SLD-0
100
AcDbLine
 10
768.739174
 20
23.166912
 30
0.0
 11
773.089174
 21
23.166912
 31
0.0
  0
LINE
  5
113
330
1F
100
AcDbEntity
  8
SLD-0
100
AcDbLine
 10
621.296861
 20
219.2341245787
 30
0.0
 11
621.296861
 21
209.3741255787
 31
0.0
  0
LINE
  5
114
330
1F
100
AcDbEntity
  8
SLD-0
100
AcDbLine
 10
626.156864
 20
219.2341245787
 30
0.0
 11
621.296861
 21
219.2341245787
 31
0.0
  0
LINE
  5
115
330
1F
100
AcDbEntity
  8
SLD-0
100
AcDbLine
 10
621.156861
 20
209.234126
 30
0.0
 11
575.296862
 21
209.234126
 31
0.0
  0
LINE
  5
116
330
1F
100
AcDbEntity
  8
SLD-0
100
AcDbLine
 10
575.296862
 20
209.234126
 30
0.0
 11
575.296862
 21
219.234125
 31
0.0
  0
LINE
  5
117
330
1F
100
AcDbEntity
  8
SLD-0
100
AcDbLine
 10
599.8243700517
 20
311.0862508709
 30
0.0
 11
599.8243720517
 21
318.1518758709
 31
0.0
  0
LINE
  5
118
330
1F
100
AcDbEntity
  8
SLD-0
100
AcDbLine
 10
596.6293700517
 20
311.0862509576
 30
0.0
 11
596.6293710517
 21
318.1518759576
 31
0.0
  0
LINE
  5
119
330
1F
100
AcDbEntity
  8
SLD-0
100
AcDbLine
 10
593.904368
 20
307.761239
 30
0.0
 11
583.13298
 21
307.761252
 31
0.0
  0
LINE
  5
11A
330
1F
100
AcDbEntity
  8
SLD-0
100
AcDbLine
 10
582.701663
 20
307.764578
 30
0.0
 11
582.701664
 21
307.761253
 31
0.0
  0
LINE
  5
11B
330
1F
100
AcDbEntity
  8
SLD-0
100
AcDbLine
 10
602.549361
 20
307.761249
 30
0.0
 11
613.320744
 21
307.761249
 31
0.0
  0
LINE
  5
11C
330
1F
100
AcDbEntity
  8
SLD-0
100
AcDbLine
 10
583.13298
 20
240.762503
 30
0.0
 11
593.904362
 21
240.7625
 31
0.0
  0
LINE
  5
11D
330
1F
100
AcDbEntity
  8
SLD-0
100
AcDbLine
 10
583.13298
 20
307.761252
 30
0.0
 11
583.13298
 21
240.762503
 31
0.0
  0
LINE
  5
11E
330
1F
100
AcDbEntity
  8
SLD-0
100
AcDbLine
 10
613.320744
 20
307.761249
 30
0.0
 11
613.320744
 21
240.762499
 31
0.0
  0
LINE
  5
11F
330
1F
100
AcDbEntity
  8
SLD-0
100
AcDbLine
 10
602.549363
 20
240.7625
 30
0.0
 11
613.320744
 21
240.762499
 31
0.0
  0
LINE
  5
120
330
1F
100
AcDbEntity
  8
SLD-0
100
AcDbLine
 10
596.629362
 20
237.437501
 30
0.0
 11
596.629361
 21
230.371875
 31
0.0
  0
LINE
  5
121
330
1F
100
AcDbEntity
  8
SLD-0
100
AcDbLine
 10
599.824362
 20
237.4374989132
 30
0.0
 11
599.824362
 21
230.3718749132
 31
0.0
  0
LINE
  5
122
330
1F
100
AcDbEntity
  8
SLD-0
100
AcDbLine
 10
715.555396
 20
136.812742
 30
0.0
 11
710.021475
 21
131.035571
 31
0.0
  0
LINE
  5
123
330
1F
100
AcDbEntity
  8
SLD-0
100
AcDbLine
 10
715.555396
 20
136.812742
 30
0.0
 11
711.87245
 21
140.340617
 31
0.0
  0
LINE
  5
124
330
1F
100
AcDbEntity
  8
SLD-0
100
AcDbLine
 10
711.87245
 20
140.340617
 30
0.0
 11
706.338528
 21
134.563446
 31
0.0
  0
LINE
  5
125
330
1F
100
AcDbEntity
  8
SLD-0
100
AcDbLine
 10
706.338528
 20
134.563446
 30
0.0
 11
710.021475
 21
131.035571
 31
0.0
  0
LINE
  5
126
330
1F
100
AcDbEntity
  8
SLD-0
100
AcDbLine
 10
724.2546
 20
153.267038
 30
0.0
 11
727.937547
 21
149.739163
 31
0.0
  0
LINE
  5
127
330
1F
100
AcDbEntity
  8
SLD-0
100
AcDbLine
 10
718.720678
 20
147.489867
 30
0.0
 11
724.2546
 21
153.267038
 31
0.0
  0
LINE
  5
128
330
1F
100
AcDbEntity
  8
SLD-0
100
AcDbLine
 10
722.403626
 20
143.961992
 30
0.0
 11
718.720678
 21
147.489867
 31
0.0
  0
LINE
  5
129
330
1F
100
AcDbEntity
  8
SLD-0
100
AcDbLine
 10
722.403626
 20
143.961992
 30
0.0
 11
727.937547
 21
149.739163
 31
0.0
  0
LINE
  5
12A
330
1F
100
AcDbEntity
  8
SLD-0
100
AcDbLine
 10
720.554414
 20
158.531488
 30
0.0
 11
700.989045
 21
138.106103
 31
0.0
  0
LINE
  5
12B
330
1F
100
AcDbEntity
  8
SLD-0
100
AcDbLine
 10
444.4561205
 20
82.926916
 30
0.0
 11
444.4561205
 21
92.926916
 31
0.0
  0
LINE
  5
12C
330
1F
100
AcDbEntity
  8
SLD-0
100
AcDbLine
 10
490.2561115
 20
82.926911
 30
0.0
 11
490.2561115
 21
92.926911
 31
0.0
  0
LINE
  5
12D
330
1F
100
AcDbEntity
  8
SLD-0
100
AcDbLine
 10
339.434669
 20
83.316914
 30
0.0
 11
342.529858
 21
83.176913
 31
0.0
  0
LINE
  5
12E
330
1F
100
AcDbEntity
  8
SLD-0
100
AcDbLine
 10
391.425049
 20
83.316915
 30
0.0
 11
388.329862
 21
83.176914
 31
0.0
  0
LINE
  5
12F
330
1F
100
AcDbEntity
  8
SLD-0
100
AcDbLine
 10
495.106117
 20
41.06691025
 30
0.0
 11
422.2599022927
 21
41.06691025
 31
0.0
  0
LINE
  5
130
330
1F
100
AcDbEntity
  8
SLD-0
100
AcDbLine
 10
444.4561205
 20
92.926916
 30
0.0
 11
439.4561205
 21
92.926916
 31
0.0
  0
LINE
  5
131
330
1F
100
AcDbEntity
  8
SLD-0
100
AcDbLine
 10
490.2561115
 20
92.926911
 30
0.0
 11
495.2561115
 21
92.926911
 31
0.0
  0
LINE
  5
132
330
1F
100
AcDbEntity
  8
SLD-0
  6
Continuous
 62
   174
420
      160
370
    18
100
AcDbLine
 10
490.2561115
 20
-0.7930905
 30
0.0
 11
490.2561115
 21
-10.7930905
 31
0.0
  0
LINE
  5
133
330
1F
100
AcDbEntity
  8
SLD-0
  6
Continuous
 62
   174
420
      160
370
    18
100
AcDbLine
 10
444.4561205
 20
-0.7930955
 30
0.0
 11
444.4561205
 21
-10.7930955
 31
0.0
  0
LINE
  5
134
330
1F
100
AcDbEntity
  8
SLD-0
  6
Continuous
 62
   174
420
      160
370
    18
100
AcDbLine
 10
490.2561115
 20
-10.7930905
 30
0.0
 11
495.2561115
 21
-10.7930905
 31
0.0
  0
LINE
  5
135
330
1F
100
AcDbEntity
  8
SLD-0
  6
Continuous
 62
   174
420
      160
370
    18
100
AcDbLine
 10
444.4561205
 20
-10.7930955
 30
0.0
 11
439.4561205
 21
-10.7930955
 31
0.0
  0
LINE
  5
136
330
1F
100
AcDbEntity
  8
SLD-0
  6
Continuous
 62
   174
420
      160
370
    18
100
AcDbLine
 10
494.2561110755
 20
111.3591474704
 30
0.0
 11
494.2561110755
 21
106.3591464704
 31
0.0
  0
LINE
  5
137
330
1F
100
AcDbEntity
  8
SLD-0
  6
Continuous
 62
   174
420
      160
370
    18
100
AcDbLine
 10
440.4561205
 20
111.3591474704
 30
0.0
 11
494.2561110755
 21
111.3591474704
 31
0.0
  0
LINE
  5
138
330
1F
100
AcDbEntity
  8
SLD-0
  6
Continuous
 62
   174
420
      160
370
    18
100
AcDbLine
 10
440.4561205
 20
106.3591474704
 30
0.0
 11
440.4561205
 21
111.3591474704
 31
0.0
  0
LINE
  5
139
330
1F
100
AcDbEntity
  8
SLD-0
  6
Continuous
 62
   174
420
      160
370
    18
100
AcDbLine
 10
444.4561205
 20
101.4991444704
 30
0.0
 11
444.4561205
 21
106.3591474704
 31
0.0
  0
LINE
  5
13A
330
1F
100
AcDbEntity
  8
SLD-0
  6
Continuous
 62
   174
420
      160
370
    18
100
AcDbLine
 10
444.4561205
 20
106.3591474704
 30
0.0
 11
440.4561205
 21
106.3591474704
 31
0.0
  0
LINE
  5
13B
330
1F
100
AcDbEntity
  8
SLD-0
  6
Continuous
 62
   174
420
      160
370
    18
100
AcDbLine
 10
490.2561110755
 20
106.3591464704
 30
0.0
 11
494.2561110755
 21
106.3591464704
 31
0.0
  0
LINE
  5
13C
330
1F
100
AcDbEntity
  8
SLD-0
  6
Continuous
 62
   174
420
      160
370
    18
100
AcDbLine
 10
444.4561205
 20
101.4991444704
 30
0.0
 11
490.2561115
 21
101.4991444704
 31
0.0
  0
LINE
  5
13D
330
1F
100
AcDbEntity
  8
SLD-0
  6
Continuous
 62
   174
420
      160
370
    18
100
AcDbLine
 10
490.2561110755
 20
106.3591464704
 30
0.0
 11
490.2561115
 21
101.4991444704
 31
0.0
  0
CIRCLE
  5
13E
330
1F
100
AcDbEntity
  8
SLD-0
100
AcDbCircle
 10
393.179859
 20
41.316912
 30
0.0
 40
1.925000000000011
  0
CIRCLE
  5
13F
330
1F
100
AcDbEntity
  8
SLD-0
100
AcDbCircle
 10
343.496722
 20
24.316912
 30
0.0
 40
1.925000000000011
  0
CIRCLE
  5
140
330
1F
100
AcDbEntity
  8
SLD-0
100
AcDbCircle
 10
343.496722
 20
58.316912
 30
0.0
 40
1.925000000000011
  0
ARC
  5
141
330
1F
100
AcDbEntity
  8
SLD-0
100
AcDbCircle
 10
386.379859
 20
76.3169125
 30
0.0
 40
1.999997500002003
100
AcDbArc
 50
89.9998854083
 51
180.0
  0
ARC
  5
142
330
1F
100
AcDbEntity
  8
SLD-0
100
AcDbCircle
 10
391.4250515071
 20
1.316912
 30
0.0
 40
2.000000000001122
100
AcDbArc
 50
269.9999140563
 51
303.348695
  0
ARC
  5
143
330
1F
100
AcDbEntity
  8
SLD-0
100
AcDbCircle
 10
391.425052
 20
81.316915
 30
0.0
 40
2.000000000001113
100
AcDbArc
 50
56.651305
 51
90.0000859437
  0
ARC
  5
144
330
1F
100
AcDbEntity
  8
SLD-0
100
AcDbCircle
 10
386.379858
 20
6.3169115
 30
0.0
 40
1.999997500002053
100
AcDbArc
 50
180.0
 51
270.0001145917
  0
ARC
  5
145
330
1F
100
AcDbEntity
  8
SLD-0
100
AcDbCircle
 10
378.4798615
 20
6.3169115
 30
0.0
 40
1.999998000001098
100
AcDbArc
 50
269.9999140562
 51
0.0
  0
ARC
  5
146
330
1F
100
AcDbEntity
  8
SLD-0
100
AcDbCircle
 10
352.3798595
 20
6.316913
 30
0.0
 40
1.999999500000126
100
AcDbArc
 50
180.0
 51
270.0000286479
  0
ARC
  5
147
330
1F
100
AcDbEntity
  8
SLD-0
100
AcDbCircle
 10
344.4798605
 20
6.316913
 30
0.0
 40
1.999999500000126
100
AcDbArc
 50
269.9999713521
 51
0.0
  0
ARC
  5
148
330
1F
100
AcDbEntity
  8
SLD-0
100
AcDbCircle
 10
339.4346694336
 20
1.316911
 30
0.0
 40
1.999999999999997
100
AcDbArc
 50
236.651305
 51
270.0
  0
ARC
  5
149
330
1F
100
AcDbEntity
  8
SLD-0
100
AcDbCircle
 10
339.434669
 20
81.316914
 30
0.0
 40
2.0
100
AcDbArc
 50
90.0
 51
123.348695
  0
ARC
  5
14A
330
1F
100
AcDbEntity
  8
SLD-0
100
AcDbCircle
 10
344.47986
 20
76.316911
 30
0.0
 40
2.00000000000025
100
AcDbArc
 50
0.0
 51
90.0000286479
  0
ARC
  5
14B
330
1F
100
AcDbEntity
  8
SLD-0
100
AcDbCircle
 10
352.37986
 20
76.316911
 30
0.0
 40
2.00000000000025
100
AcDbArc
 50
89.9999713521
 51
180.0
  0
ARC
  5
14C
330
1F
100
AcDbEntity
  8
SLD-0
100
AcDbCircle
 10
378.479862
 20
76.3169125
 30
0.0
 40
1.999998500001231
100
AcDbArc
 50
0.0
 51
90.0000859437
  0
CIRCLE
  5
14D
330
1F
100
AcDbEntity
  8
SLD-0
100
AcDbCircle
 10
495.106117
 20
41.06691025
 30
0.0
 40
1.924999999999971
  0
CIRCLE
  5
14E
330
1F
100
AcDbEntity
  8
SLD-0
100
AcDbCircle
 10
445.42298
 20
24.06691
 30
0.0
 40
1.924999999999955
  0
CIRCLE
  5
14F
330
1F
100
AcDbEntity
  8
SLD-0
100
AcDbCircle
 10
445.42298
 20
58.06691
 30
0.0
 40
1.924999999999955
  0
ARC
  5
150
330
1F
100
AcDbEntity
  8
SLD-0
100
AcDbCircle
 10
488.306114
 20
76.066907
 30
0.0
 40
2.000001000002248
100
AcDbArc
 50
90.0000859436
 51
180.0
  0
CIRCLE
  5
151
330
1F
100
AcDbEntity
  8
SLD-0
100
AcDbCircle
 10
450.4148818721
 20
103.9991444704
 30
0.0
 40
1.999999999999995
  0
CIRCLE
  5
152
330
1F
100
AcDbEntity
  8
SLD-0
  6
Continuous
 62
   174
420
      160
370
    18
100
AcDbCircle
 10
484.2973501279
 20
103.9991444704
 30
0.0
 40
1.999999999999995
  0
ARC
  5
153
330
1F
100
AcDbEntity
  8
SLD-0
100
AcDbCircle
 10
488.3061145
 20
6.066913
 30
0.0
 40
2.000001500001139
100
AcDbArc
 50
180.0
 51
269.9999140564
  0
ARC
  5
154
330
1F
100
AcDbEntity
  8
SLD-0
100
AcDbCircle
 10
480.40611
 20
6.066913
 30
0.0
 40
2.000003000008999
100
AcDbArc
 50
270.0001718871
 51
0.0
  0
ARC
  5
155
330
1F
100
AcDbEntity
  8
SLD-0
100
AcDbCircle
 10
454.306119
 20
6.066911
 30
0.0
 40
2.000001000001
100
AcDbArc
 50
180.0
 51
269.9999427042
  0
ARC
  5
156
330
1F
100
AcDbEntity
  8
SLD-0
100
AcDbCircle
 10
446.4061145
 20
6.066911
 30
0.0
 40
2.000003500006125
100
AcDbArc
 50
270.0002005349
 51
0.0
  0
ARC
  5
157
330
1F
100
AcDbEntity
  8
SLD-0
100
AcDbCircle
 10
446.406114
 20
76.066909
 30
0.0
 40
2.000004000006129
100
AcDbArc
 50
0.0
 51
89.9997994652
  0
ARC
  5
158
330
1F
100
AcDbEntity
  8
SLD-0
100
AcDbCircle
 10
480.40611
 20
76.066907
 30
0.0
 40
2.000003000008992
100
AcDbArc
 50
0.0
 51
89.9998281129
  0
CIRCLE
  5
159
330
1F
100
AcDbEntity
  8
SLD-0
100
AcDbCircle
 10
481.856117
 20
36.06691
 30
0.0
 40
1.925000000000011
  0
CIRCLE
  5
15A
330
1F
100
AcDbEntity
  8
SLD-0
100
AcDbCircle
 10
481.856117
 20
46.06691
 30
0.0
 40
1.925000000000011
  0
CIRCLE
  5
15B
330
1F
100
AcDbEntity
  8
SLD-0
100
AcDbCircle
 10
432.856117
 20
36.06691
 30
0.0
 40
1.925000000000011
  0
CIRCLE
  5
15C
330
1F
100
AcDbEntity
  8
SLD-0
100
AcDbCircle
 10
432.856117
 20
46.06691
 30
0.0
 40
1.925000000000011
  0
ARC
  5
15D
330
1F
100
AcDbEntity
  8
SLD-0
100
AcDbCircle
 10
479.506119
 20
38.46691225
 30
0.0
 40
2.0
100
AcDbArc
 50
90.0
 51
180.0
  0
ARC
  5
15E
330
1F
100
AcDbEntity
  8
SLD-0
100
AcDbCircle
 10
454.306119
 20
76.066909
 30
0.0
 40
2.000001000000998
100
AcDbArc
 50
90.0000572958
 51
180.0
  0
ARC
  5
15F
330
1F
100
AcDbEntity
  8
SLD-0
100
AcDbCircle
 10
435.206122
 20
38.46691225
 30
0.0
 40
1.999998000002001
100
AcDbArc
 50
0.0
 51
90.0001145917
  0
ARC
  5
160
330
1F
100
AcDbEntity
  8
SLD-0
100
AcDbCircle
 10
430.856116
 20
41.06691025
 30
0.0
 40
0.600000000001728
100
AcDbArc
 50
180.0
 51
270.0001909859
  0
ARC
  5
161
330
1F
100
AcDbEntity
  8
SLD-0
100
AcDbCircle
 10
483.856125
 20
41.06691225
 30
0.0
 40
0.6000000000150303
100
AcDbArc
 50
269.9994270422
 51
0.0
  0
ARC
  5
162
330
1F
100
AcDbEntity
  8
SLD-0
100
AcDbCircle
 10
435.206122
 20
43.66690825
 30
0.0
 40
1.999998000001995
100
AcDbArc
 50
269.9998854083
 51
0.0
  0
ARC
  5
163
330
1F
100
AcDbEntity
  8
SLD-0
100
AcDbCircle
 10
479.506119
 20
43.66691225
 30
0.0
 40
2.000000000000007
100
AcDbArc
 50
180.0
 51
270.0
  0
ARC
  5
164
330
1F
100
AcDbEntity
  8
SLD-0
100
AcDbCircle
 10
430.856116
 20
41.06691025
 30
0.0
 40
0.600000000001728
100
AcDbArc
 50
89.9998090141
 51
180.0
  0
ARC
  5
165
330
1F
100
AcDbEntity
  8
SLD-0
100
AcDbCircle
 10
483.856125
 20
41.06691225
 30
0.0
 40
0.6000000000150294
100
AcDbArc
 50
0.0
 51
90.0005729578
  0
ARC
  5
166
330
1F
100
AcDbEntity
  8
SLD-0
100
AcDbCircle
 10
362.4576492168
 20
41.3169126255
 30
0.0
 40
48.14912428426067
100
AcDbArc
 50
120.0658170116
 51
239.9341835846
  0
ARC
  5
167
330
1F
100
AcDbEntity
  8
SLD-0
100
AcDbCircle
 10
357.3715597536
 20
41.3169137079
 30
0.0
 40
54.51766890473706
100
AcDbArc
 50
310.1506333711
 51
49.8493659513
  0
CIRCLE
  5
168
330
1F
100
AcDbEntity
  8
SLD-0
100
AcDbCircle
 10
771.089172
 20
17.56691
 30
0.0
 40
1.924999999999955
  0
CIRCLE
  5
169
330
1F
100
AcDbEntity
  8
SLD-0
100
AcDbCircle
 10
771.089172
 20
27.56691
 30
0.0
 40
1.924999999999955
  0
CIRCLE
  5
16A
330
1F
100
AcDbEntity
  8
SLD-0
100
AcDbCircle
 10
722.089172
 20
17.56691
 30
0.0
 40
1.924999999999955
  0
CIRCLE
  5
16B
330
1F
100
AcDbEntity
  8
SLD-0
100
AcDbCircle
 10
722.089172
 20
27.56691
 30
0.0
 40
1.924999999999955
  0
ARC
  5
16C
330
1F
100
AcDbEntity
  8
SLD-0
100
AcDbCircle
 10
768.739174
 20
19.966912
 30
0.0
 40
2.0
100
AcDbArc
 50
90.0
 51
180.0
  0
ARC
  5
16D
330
1F
100
AcDbEntity
  8
SLD-0
100
AcDbCircle
 10
724.439177
 20
19.966912
 30
0.0
 40
1.999998000003998
100
AcDbArc
 50
0.0
 51
90.0001145917
  0
ARC
  5
16E
330
1F
100
AcDbEntity
  8
SLD-0
100
AcDbCircle
 10
720.089171
 20
22.56691
 30
0.0
 40
0.6000000000033348
100
AcDbArc
 50
180.0
 51
270.0001909859
  0
ARC
  5
16F
330
1F
100
AcDbEntity
  8
SLD-0
100
AcDbCircle
 10
773.08918
 20
22.566912
 30
0.0
 40
0.6000000000150294
100
AcDbArc
 50
269.9994270422
 51
0.0
  0
ARC
  5
170
330
1F
100
AcDbEntity
  8
SLD-0
100
AcDbCircle
 10
724.439177
 20
25.166908
 30
0.0
 40
1.999998000003998
100
AcDbArc
 50
269.9998854083
 51
0.0
  0
ARC
  5
171
330
1F
100
AcDbEntity
  8
SLD-0
100
AcDbCircle
 10
768.739174
 20
25.166912
 30
0.0
 40
2.0
100
AcDbArc
 50
180.0
 51
270.0
  0
ARC
  5
172
330
1F
100
AcDbEntity
  8
SLD-0
100
AcDbCircle
 10
720.089171
 20
22.56691
 30
0.0
 40
0.6000000000033348
100
AcDbArc
 50
89.9998090141
 51
180.0
  0
ARC
  5
173
330
1F
100
AcDbEntity
  8
SLD-0
100
AcDbCircle
 10
773.08918
 20
22.566912
 30
0.0
 40
0.6000000000150294
100
AcDbArc
 50
0.0
 51
90.0005729578
  0
CIRCLE
  5
174
330
1F
100
AcDbEntity
  8
SLD-0
100
AcDbCircle
 10
600.309202
 20
22.566912
 30
0.0
 40
4.600000000000023
  0
CIRCLE
  5
175
330
1F
100
AcDbEntity
  8
SLD-0
100
AcDbCircle
 10
600.309202
 20
6.366912
 30
0.0
 40
1.5
  0
CIRCLE
  5
176
330
1F
100
AcDbEntity
  8
SLD-0
100
AcDbCircle
 10
616.509202
 20
22.566912
 30
0.0
 40
1.499999999999886
  0
ARC
  5
177
330
1F
100
AcDbEntity
  8
SLD-0
100
AcDbCircle
 10
-0.122088
 20
52.230567
 30
0.0
 40
2.800000000000176
100
AcDbArc
 50
269.9999795372
 51
325.056274
  0
ARC
  5
178
330
1F
100
AcDbEntity
  8
SLD-0
100
AcDbCircle
 10
91.744648
 20
75.309962
 30
0.0
 40
3.499999668857843
100
AcDbArc
 50
224.9999884245
 51
44.9999884245
  0
ARC
  5
179
330
1F
100
AcDbEntity
  8
SLD-0
100
AcDbCircle
 10
124.4465989828
 20
153.4054831419
 30
0.0
 40
14.00000003384762
100
AcDbArc
 50
124.9436894671
 51
203.2845500472
  0
ARC
  5
17A
330
1F
100
AcDbEntity
  8
SLD-0
100
AcDbCircle
 10
-15.375957
 20
56.430568
 30
0.0
 40
7.0
100
AcDbArc
 50
180.0
 51
270.0
  0
ARC
  5
17B
330
1F
100
AcDbEntity
  8
SLD-0
100
AcDbCircle
 10
76.89540425
 20
90.15920625
 30
0.0
 40
3.499998608198497
100
AcDbArc
 50
44.999953698
 51
225.0000347265
  0
ARC
  5
17C
330
1F
100
AcDbEntity
  8
SLD-0
100
AcDbCircle
 10
95.3701739878
 20
52.2305660644
 30
0.0
 40
2.800002000000002
100
AcDbArc
 50
214.94366
 51
270.0
  0
ARC
  5
17D
330
1F
100
AcDbEntity
  8
SLD-0
100
AcDbCircle
 10
-15.3759569375
 20
182.4305661772
 30
0.0
 40
7.0
100
AcDbArc
 50
90.0
 51
180.0
  0
CIRCLE
  5
17E
330
1F
100
AcDbEntity
  8
SLD-0
100
AcDbCircle
 10
103.624043
 20
63.430568
 30
0.0
 40
3.400000000000006
  0
ARC
  5
17F
330
1F
100
AcDbEntity
  8
SLD-0
100
AcDbCircle
 10
-29.1985134098
 20
85.4556537767
 30
0.0
 40
14.0000001618052
100
AcDbArc
 50
304.943694
 51
23.2845335494
  0
ARC
  5
180
330
1F
100
AcDbEntity
  8
SLD-0
100
AcDbCircle
 10
3.50343675
 20
75.30996125
 30
0.0
 40
3.499999315304411
100
AcDbArc
 50
134.9999884245
 51
315.0
  0
ARC
  5
181
330
1F
100
AcDbEntity
  8
SLD-0
100
AcDbCircle
 10
114.8240454878
 20
71.6844325644
 30
0.0
 40
2.799999000000014
100
AcDbArc
 50
0.0
 51
55.05633
  0
ARC
  5
182
330
1F
100
AcDbEntity
  8
SLD-0
100
AcDbCircle
 10
47.6240408425
 20
119.4305675536
 30
0.0
 40
70.00000019008846
100
AcDbArc
 50
156.257095
 51
203.7429047969
  0
ARC
  5
183
330
1F
100
AcDbEntity
  8
SLD-0
100
AcDbCircle
 10
13.6491277249
 20
196.2531228268
 30
0.0
 40
13.99999970252865
100
AcDbArc
 50
214.943694
 51
293.2845351672
  0
ARC
  5
184
330
1F
100
AcDbEntity
  8
SLD-0
100
AcDbCircle
 10
124.4465991127
 20
85.4556500775
 30
0.0
 40
14.00000010886746
100
AcDbArc
 50
156.715450585
 51
235.0563078066
  0
ARC
  5
185
330
1F
100
AcDbEntity
  8
SLD-0
100
AcDbCircle
 10
91.744649
 20
163.5511735
 30
0.0
 40
3.49999931530441
100
AcDbArc
 50
314.9999942123
 51
134.9999942123
  0
CIRCLE
  5
186
330
1F
100
AcDbEntity
  8
SLD-0
100
AcDbCircle
 10
-8.375957
 20
63.430568
 30
0.0
 40
3.4
  0
ARC
  5
187
330
1F
100
AcDbEntity
  8
SLD-0
100
AcDbCircle
 10
-19.5759575658
 20
71.684436
 30
0.0
 40
2.800000434176481
100
AcDbArc
 50
124.9436950992
 51
180.0
  0
ARC
  5
188
330
1F
100
AcDbEntity
  8
SLD-0
100
AcDbCircle
 10
3.50343625
 20
163.55117325
 30
0.0
 40
3.499999315304424
100
AcDbArc
 50
44.9999884245
 51
225.0
  0
ARC
  5
189
330
1F
100
AcDbEntity
  8
SLD-0
100
AcDbCircle
 10
76.89540425
 20
148.70192875
 30
0.0
 40
3.499999315305293
100
AcDbArc
 50
134.999953698
 51
315.0000347265
  0
ARC
  5
18A
330
1F
100
AcDbEntity
  8
SLD-0
100
AcDbCircle
 10
110.6240449878
 20
182.4305700428
 30
0.0
 40
6.999999000000315
100
AcDbArc
 50
0.0
 51
90.0000245553
  0
ARC
  5
18B
330
1F
100
AcDbEntity
  8
SLD-0
100
AcDbCircle
 10
18.352679
 20
148.701931
 30
0.0
 40
3.499999668857843
100
AcDbArc
 50
224.9999884245
 51
44.9999884245
  0
ARC
  5
18C
330
1F
100
AcDbEntity
  8
SLD-0
100
AcDbCircle
 10
-29.198513705
 20
153.4054792984
 30
0.0
 40
13.99999999999999
100
AcDbArc
 50
336.715463
 51
55.056306
  0
ARC
  5
18D
330
1F
100
AcDbEntity
  8
SLD-0
100
AcDbCircle
 10
-0.1220879375
 20
186.6305670628
 30
0.0
 40
2.79999911446138
100
AcDbArc
 50
34.9437185402
 51
90.0000204628
  0
ARC
  5
18E
330
1F
100
AcDbEntity
  8
SLD-0
100
AcDbCircle
 10
110.6240449878
 20
56.4305645644
 30
0.0
 40
6.999998500000356
100
AcDbArc
 50
269.9999754447
 51
359.9999918149
  0
CIRCLE
  5
18F
330
1F
100
AcDbEntity
  8
SLD-0
100
AcDbCircle
 10
47.656346
 20
118.921109
 30
0.0
 40
10.50000000000001
  0
CIRCLE
  5
190
330
1F
100
AcDbEntity
  8
SLD-0
100
AcDbCircle
 10
47.656346
 20
133.421109
 30
0.0
 40
1.925000000000004
  0
ARC
  5
191
330
1F
100
AcDbEntity
  8
SLD-0
100
AcDbCircle
 10
47.6240408425
 20
119.4305675536
 30
0.0
 40
69.99999988721422
100
AcDbArc
 50
336.2570949517
 51
23.7429050483
  0
ARC
  5
192
330
1F
100
AcDbEntity
  8
SLD-0
100
AcDbCircle
 10
114.8240459128
 20
167.1767010428
 30
0.0
 40
2.799999075019883
100
AcDbArc
 50
304.9436697782
 51
0.0
  0
ARC
  5
193
330
1F
100
AcDbEntity
  8
SLD-0
100
AcDbCircle
 10
18.35268
 20
90.1592045
 30
0.0
 40
3.4999993153044
100
AcDbArc
 50
314.9999942123
 51
134.9999942123
  0
ARC
  5
194
330
1F
100
AcDbEntity
  8
SLD-0
100
AcDbCircle
 10
47.6240408425
 20
119.4305675536
 30
0.0
 40
69.99999988721424
100
AcDbArc
 50
246.2570949517
 51
293.7429050483
  0
CIRCLE
  5
195
330
1F
100
AcDbEntity
  8
SLD-0
100
AcDbCircle
 10
103.624043
 20
175.430568
 30
0.0
 40
3.400000000000006
  0
ARC
  5
196
330
1F
100
AcDbEntity
  8
SLD-0
100
AcDbCircle
 10
81.5989547071
 20
42.6080108682
 30
0.0
 40
13.99999945782627
100
AcDbArc
 50
34.943695321
 51
113.2845389264
  0
CIRCLE
  5
197
330
1F
100
AcDbEntity
  8
SLD-0
100
AcDbCircle
 10
207.0814865319
 20
119.4305677525
 30
0.0
 40
21.99999999999999
  0
CIRCLE
  5
198
330
1F
100
AcDbEntity
  8
SLD-0
100
AcDbCircle
 10
35.098978
 20
111.671109
 30
0.0
 40
1.925000000000004
  0
CIRCLE
  5
199
330
1F
100
AcDbEntity
  8
SLD-0
100
AcDbCircle
 10
60.213714
 20
111.671109
 30
0.0
 40
1.925000000000004
  0
ARC
  5
19A
330
1F
100
AcDbEntity
  8
SLD-0
100
AcDbCircle
 10
-19.5759587897
 20
167.1766971772
 30
0.0
 40
2.800000147790954
100
AcDbArc
 50
180.0
 51
235.0563216745
  0
CIRCLE
  5
19B
330
1F
100
AcDbEntity
  8
SLD-0
100
AcDbCircle
 10
-8.375957
 20
175.430568
 30
0.0
 40
3.4
  0
ARC
  5
19C
330
1F
100
AcDbEntity
  8
SLD-0
100
AcDbCircle
 10
47.6240408425
 20
119.4305675536
 30
0.0
 40
69.99999988721424
100
AcDbArc
 50
66.2570949517
 51
113.7429050483
  0
ARC
  5
19D
330
1F
100
AcDbEntity
  8
SLD-0
100
AcDbCircle
 10
95.3701739878
 20
186.6305670428
 30
0.0
 40
2.800001999999965
100
AcDbArc
 50
90.0
 51
145.05634
  0
ARC
  5
19E
330
1F
100
AcDbEntity
  8
SLD-0
100
AcDbCircle
 10
81.5989547071
 20
196.253122239
 30
0.0
 40
13.99999945782625
100
AcDbArc
 50
246.7154610736
 51
325.056304679
  0
ARC
  5
19F
330
1F
100
AcDbEntity
  8
SLD-0
100
AcDbCircle
 10
13.6491276957
 20
42.6080112126
 30
0.0
 40
13.99999885771362
100
AcDbArc
 50
66.7154632151
 51
145.056307492
  0
ARC
  5
1A0
330
1F
100
AcDbEntity
  8
SLD-0
100
AcDbCircle
 10
173.1065735959
 20
196.2531236039
 30
0.0
 40
14.0000001618052
100
AcDbArc
 50
214.943694
 51
293.2845335494
  0
ARC
  5
1A1
330
1F
100
AcDbEntity
  8
SLD-0
100
AcDbCircle
 10
159.335357382
 20
186.6305664544
 30
0.0
 40
2.799999900847224
100
AcDbArc
 50
34.9437353138
 51
90.0000204628
  0
ARC
  5
1A2
330
1F
100
AcDbEntity
  8
SLD-0
100
AcDbCircle
 10
207.0814865319
 20
119.4305677525
 30
0.0
 40
69.99999988721423
100
AcDbArc
 50
66.2570949517
 51
113.7429050483
  0
ARC
  5
1A3
330
1F
100
AcDbEntity
  8
SLD-0
100
AcDbCircle
 10
241.0564005875
 20
196.2531238816
 30
0.0
 40
14.00000085945399
100
AcDbArc
 50
246.7154626914
 51
325.056306
  0
ARC
  5
1A4
330
1F
100
AcDbEntity
  8
SLD-0
100
AcDbCircle
 10
254.8276198349
 20
186.6305687088
 30
0.0
 40
2.800000557648726
100
AcDbArc
 50
90.0
 51
145.0563333949
  0
ARC
  5
1A5
330
1F
100
AcDbEntity
  8
SLD-0
100
AcDbCircle
 10
270.0814908349
 20
182.4305707664
 30
0.0
 40
6.999998500000306
100
AcDbArc
 50
0.0
 51
90.0000245553
  0
ARC
  5
1A6
330
1F
100
AcDbEntity
  8
SLD-0
100
AcDbCircle
 10
283.9040447503
 20
153.4054831594
 30
0.0
 40
14.00000003384763
100
AcDbArc
 50
124.9436915666
 51
203.2845492387
  0
ARC
  5
1A7
330
1F
100
AcDbEntity
  8
SLD-0
100
AcDbCircle
 10
274.2814912598
 20
167.1767007664
 30
0.0
 40
2.799999075019855
100
AcDbArc
 50
304.9436697782
 51
0.0
  0
ARC
  5
1A8
330
1F
100
AcDbEntity
  8
SLD-0
100
AcDbCircle
 10
207.0814865319
 20
119.4305677525
 30
0.0
 40
69.99999988721423
100
AcDbArc
 50
336.2570949517
 51
23.7429050483
  0
ARC
  5
1A9
330
1F
100
AcDbEntity
  8
SLD-0
100
AcDbCircle
 10
283.9040442836
 20
85.4556492611
 30
0.0
 40
14.0000000338476
100
AcDbArc
 50
156.7154459292
 51
235.0563181065
  0
ARC
  5
1AA
330
1F
100
AcDbEntity
  8
SLD-0
100
AcDbCircle
 10
274.2814918433
 20
71.6844303103
 30
0.0
 40
2.799999575019854
100
AcDbArc
 50
0.0
 51
55.0563152218
  0
ARC
  5
1AB
330
1F
100
AcDbEntity
  8
SLD-0
100
AcDbCircle
 10
270.0814909183
 20
56.4305623103
 30
0.0
 40
6.999998500000434
100
AcDbArc
 50
269.9999754447
 51
359.9999836298
  0
ARC
  5
1AC
330
1F
100
AcDbEntity
  8
SLD-0
100
AcDbCircle
 10
241.0564005454
 20
42.608009716
 30
0.0
 40
13.99999970252865
100
AcDbArc
 50
34.943694
 51
113.2845351672
  0
ARC
  5
1AD
330
1F
100
AcDbEntity
  8
SLD-0
100
AcDbCircle
 10
254.8276199183
 20
52.2305642778
 30
0.0
 40
2.800001467506526
100
AcDbArc
 50
214.9436548846
 51
270.0
  0
ARC
  5
1AE
330
1F
100
AcDbEntity
  8
SLD-0
100
AcDbCircle
 10
207.0814865319
 20
119.4305677525
 30
0.0
 40
70.00000054398816
100
AcDbArc
 50
246.2570945907
 51
293.7429047187
  0
ARC
  5
1AF
330
1F
100
AcDbEntity
  8
SLD-0
100
AcDbCircle
 10
173.1065728243
 20
42.6080102372
 30
0.0
 40
13.99999990017746
100
AcDbArc
 50
66.7154610736
 51
145.056306
  0
ARC
  5
1B0
330
1F
100
AcDbEntity
  8
SLD-0
100
AcDbCircle
 10
159.335357
 20
52.2305661145
 30
0.0
 40
2.799999114461411
100
AcDbArc
 50
269.9999795372
 51
325.0562814598
  0
ARC
  5
1B1
330
1F
100
AcDbEntity
  8
SLD-0
100
AcDbCircle
 10
144.081488
 20
56.430568
 30
0.0
 40
7.0
100
AcDbArc
 50
180.0
 51
270.0
  0
ARC
  5
1B2
330
1F
100
AcDbEntity
  8
SLD-0
100
AcDbCircle
 10
130.2589315902
 20
85.4556537767
 30
0.0
 40
14.00000016180523
100
AcDbArc
 50
304.943694
 51
23.2845335494
  0
ARC
  5
1B3
330
1F
100
AcDbEntity
  8
SLD-0
100
AcDbCircle
 10
139.8814874342
 20
71.684436
 30
0.0
 40
2.800000434176483
100
AcDbArc
 50
124.9436950992
 51
180.0
  0
ARC
  5
1B4
330
1F
100
AcDbEntity
  8
SLD-0
100
AcDbCircle
 10
207.0814865319
 20
119.4305677525
 30
0.0
 40
70.0000009012878
100
AcDbArc
 50
156.257095
 51
203.7429047187
  0
ARC
  5
1B5
330
1F
100
AcDbEntity
  8
SLD-0
100
AcDbCircle
 10
130.2589309698
 20
153.4054791404
 30
0.0
 40
14.00000000000001
100
AcDbArc
 50
336.715463
 51
55.056306
  0
ARC
  5
1B6
330
1F
100
AcDbEntity
  8
SLD-0
100
AcDbCircle
 10
139.8814861199
 20
167.1766963553
 30
0.0
 40
2.799999737933236
100
AcDbArc
 50
180.0
 51
235.056309954
  0
ARC
  5
1B7
330
1F
100
AcDbEntity
  8
SLD-0
100
AcDbCircle
 10
144.081488382
 20
182.4305663553
 30
0.0
 40
7.000000000000028
100
AcDbArc
 50
90.0
 51
180.0
  0
ARC
  5
1B8
330
1F
100
AcDbEntity
  8
SLD-0
100
AcDbCircle
 10
162.96088125
 20
163.55117325
 30
0.0
 40
3.499999315304433
100
AcDbArc
 50
44.9999884245
 51
225.0
  0
ARC
  5
1B9
330
1F
100
AcDbEntity
  8
SLD-0
100
AcDbCircle
 10
177.810124
 20
148.701931
 30
0.0
 40
3.499999668857843
100
AcDbArc
 50
224.9999884245
 51
44.9999884245
  0
ARC
  5
1BA
330
1F
100
AcDbEntity
  8
SLD-0
100
AcDbCircle
 10
162.96088175
 20
75.30996125
 30
0.0
 40
3.499999315304422
100
AcDbArc
 50
134.9999884245
 51
315.0
  0
ARC
  5
1BB
330
1F
100
AcDbEntity
  8
SLD-0
100
AcDbCircle
 10
177.810125
 20
90.1592045
 30
0.0
 40
3.4999993153044
100
AcDbArc
 50
314.9999942123
 51
134.9999942123
  0
ARC
  5
1BC
330
1F
100
AcDbEntity
  8
SLD-0
100
AcDbCircle
 10
251.202093
 20
75.309962
 30
0.0
 40
3.499999668857863
100
AcDbArc
 50
224.9999884245
 51
44.9999884245
  0
ARC
  5
1BD
330
1F
100
AcDbEntity
  8
SLD-0
100
AcDbCircle
 10
236.35284925
 20
90.15920625
 30
0.0
 40
3.499998608198497
100
AcDbArc
 50
44.999953698
 51
225.0000347265
  0
ARC
  5
1BE
330
1F
100
AcDbEntity
  8
SLD-0
100
AcDbCircle
 10
251.202094
 20
163.5511735
 30
0.0
 40
3.4999993153044
100
AcDbArc
 50
314.9999942123
 51
134.9999942123
  0
ARC
  5
1BF
330
1F
100
AcDbEntity
  8
SLD-0
100
AcDbCircle
 10
236.35284925
 20
148.70192875
 30
0.0
 40
3.499999315305266
100
AcDbArc
 50
134.999953698
 51
315.0000347265
  0
CIRCLE
  5
1C0
330
1F
100
AcDbEntity
  8
SLD-0
100
AcDbCircle
 10
263.081488
 20
175.430568
 30
0.0
 40
3.400000000000034
  0
CIRCLE
  5
1C1
330
1F
100
AcDbEntity
  8
SLD-0
100
AcDbCircle
 10
151.081488
 20
175.430568
 30
0.0
 40
3.400000000000006
  0
CIRCLE
  5
1C2
330
1F
100
AcDbEntity
  8
SLD-0
100
AcDbCircle
 10
151.081488
 20
63.430568
 30
0.0
 40
3.400000000000006
  0
CIRCLE
  5
1C3
330
1F
100
AcDbEntity
  8
SLD-0
100
AcDbCircle
 10
263.081488
 20
63.430568
 30
0.0
 40
3.400000000000034
  0
CIRCLE
  5
1C4
330
1F
100
AcDbEntity
  8
SLD-0
100
AcDbCircle
 10
584.109202
 20
22.566912
 30
0.0
 40
1.499999999999886
  0
ARC
  5
1C5
330
1F
100
AcDbEntity
  8
SLD-0
100
AcDbCircle
 10
696.0019773347
 20
1036.6738458805
 30
0.0
 40
999.5202704585246
100
AcDbArc
 50
264.9282566408
 51
273.0010272317
  0
ARC
  5
1C6
330
1F
100
AcDbEntity
  8
SLD-0
  6
Continuous
 62
   174
420
      160
370
    18
100
AcDbCircle
 10
696.0019773347
 20
-991.5400218805
 30
0.0
 40
999.5202704585245
100
AcDbArc
 50
86.9989727683
 51
95.0717433592
  0
CIRCLE
  5
1C7
330
1F
100
AcDbEntity
  8
SLD-0
100
AcDbCircle
 10
854.167433
 20
137.399337
 30
0.0
 40
1.5
  0
ARC
  5
1C8
330
1F
100
AcDbEntity
  8
SLD-0
100
AcDbCircle
 10
598.2968638846
 20
270.0973417893
 30
0.0
 40
57.99350370040675
100
AcDbArc
 50
298.7114408402
 51
241.2885582933
  0
CIRCLE
  5
1C9
330
1F
100
AcDbEntity
  8
SLD-0
100
AcDbCircle
 10
615.296863
 20
214.234126
 30
0.0
 40
1.900000000000091
  0
ARC
  5
1CA
330
1F
100
AcDbEntity
  8
SLD-0
100
AcDbCircle
 10
600.309202
 20
22.566912
 30
0.0
 40
19.89999949704105
100
AcDbArc
 50
68.3800581343
 51
291.6199418657
  0
ARC
  5
1CB
330
1F
100
AcDbEntity
  8
SLD-0
100
AcDbCircle
 10
767.6837607572
 20
29.0255521018
 30
0.0
 40
9.999999999999979
100
AcDbArc
 50
31.017699
 51
93.356625
  0
ARC
  5
1CC
330
1F
100
AcDbEntity
  8
SLD-0
100
AcDbCircle
 10
767.6837607572
 20
16.1082701018
 30
0.0
 40
9.999999999999982
100
AcDbArc
 50
266.627999
 51
328.982301
  0
CIRCLE
  5
1CD
330
1F
100
AcDbEntity
  8
SLD-0
100
AcDbCircle
 10
581.296863
 20
214.234126
 30
0.0
 40
1.900000000000091
  0
CIRCLE
  5
1CE
330
1F
100
AcDbEntity
  8
SLD-0
100
AcDbCircle
 10
651.290367
 20
270.097342
 30
0.0
 40
1.924999999999955
  0
ARC
  5
1CF
330
1F
100
AcDbEntity
  8
SLD-0
100
AcDbCircle
 10
756.9422937572
 20
22.5669111018
 30
0.0
 40
22.53368089904039
100
AcDbArc
 50
328.982301865
 51
31.017698135
  0
ARC
  5
1D0
330
1F
100
AcDbEntity
  8
SLD-0
100
AcDbCircle
 10
592.7122518659
 20
237.0063859852
 30
0.0
 40
3.940762865074162
100
AcDbArc
 50
6.2806643812
 51
72.391762
  0
ARC
  5
1D1
330
1F
100
AcDbEntity
  8
SLD-0
100
AcDbCircle
 10
603.7414793459
 20
311.5173629032
 30
0.0
 40
3.940761703977369
100
AcDbArc
 50
186.2806226157
 51
252.391749
  0
ARC
  5
1D2
330
1F
100
AcDbEntity
  8
SLD-0
100
AcDbCircle
 10
598.2268715479
 20
318.0121759142
 30
0.0
 40
1.60359718679618
100
AcDbArc
 50
4.9977495091
 51
175.0022473782
  0
ARC
  5
1D3
330
1F
100
AcDbEntity
  8
SLD-0
100
AcDbCircle
 10
592.7122600121
 20
311.517365962
 30
0.0
 40
3.94076277001789
100
AcDbArc
 50
287.6082366364
 51
353.7193356188
  0
CIRCLE
  5
1D4
330
1F
100
AcDbEntity
  8
SLD-0
100
AcDbCircle
 10
545.30336
 20
270.097342
 30
0.0
 40
1.924999999999955
  0
ARC
  5
1D5
330
1F
100
AcDbEntity
  8
SLD-0
100
AcDbCircle
 10
598.2268615038
 20
230.5115759566
 30
0.0
 40
1.603597273912968
100
AcDbArc
 50
184.9977851028
 51
355.0022117845
  0
ARC
  5
1D6
330
1F
100
AcDbEntity
  8
SLD-0
100
AcDbCircle
 10
603.7414712399
 20
237.0063858868
 30
0.0
 40
3.940761758676527
100
AcDbArc
 50
107.608238
 51
173.7193629323
  0
CIRCLE
  5
1D7
330
1F
100
AcDbEntity
  8
SLD-0
100
AcDbCircle
 10
589.22687
 20
311.874436
 30
0.0
 40
2.0
  0
CIRCLE
  5
1D8
330
1F
100
AcDbEntity
  8
SLD-0
100
AcDbCircle
 10
589.22685
 20
236.64932
 30
0.0
 40
2.0
  0
CIRCLE
  5
1D9
330
1F
100
AcDbEntity
  8
SLD-0
100
AcDbCircle
 10
607.22685
 20
236.649315
 30
0.0
 40
2.0
  0
CIRCLE
  5
1DA
330
1F
100
AcDbEntity
  8
SLD-0
100
AcDbCircle
 10
607.22687
 20
311.874431
 30
0.0
 40
2.0
  0
CIRCLE
  5
1DB
330
1F
100
AcDbEntity
  8
SLD-0
100
AcDbCircle
 10
757.714489
 20
6.767464
 30
0.0
 40
1.919999999999959
  0
ARC
  5
1DC
330
1F
100
AcDbEntity
  8
SLD-0
100
AcDbCircle
 10
757.8648406174
 20
32.9372103524
 30
0.0
 40
11.05057591699058
100
AcDbArc
 50
33.3258585216
 51
149.6291725857
  0
CIRCLE
  5
1DD
330
1F
100
AcDbEntity
  8
SLD-0
100
AcDbCircle
 10
706.516581
 20
22.566912
 30
0.0
 40
1.919999999999959
  0
CIRCLE
  5
1DE
330
1F
100
AcDbEntity
  8
SLD-0
100
AcDbCircle
 10
634.337789
 20
22.566912
 30
0.0
 40
1.920000000000073
  0
CIRCLE
  5
1DF
330
1F
100
AcDbEntity
  8
SLD-0
100
AcDbCircle
 10
757.714489
 20
38.36636
 30
0.0
 40
1.919999999999959
  0
ARC
  5
1E0
330
1F
100
AcDbEntity
  8
SLD-0
100
AcDbCircle
 10
757.8648416731
 20
12.1966142662
 30
0.0
 40
11.05057714053361
100
AcDbArc
 50
210.3708274143
 51
326.674142
  0
ARC
  5
1E1
330
1F
100
AcDbEntity
  8
SLD-0
100
AcDbCircle
 10
715.1707451834
 20
136.1203869743
 30
0.0
 40
14.3200449798568
100
AcDbArc
 50
172.0292880457
 51
254.4454367569
  0
CIRCLE
  5
1E2
330
1F
100
AcDbEntity
  8
SLD-0
100
AcDbCircle
 10
838.6710161197
 20
137.0660809264
 30
0.0
 40
6.699999999999983
  0
CIRCLE
  5
1E3
330
1F
100
AcDbEntity
  8
SLD-0
100
AcDbCircle
 10
838.961271
 20
123.569201
 30
0.0
 40
1.5
  0
CIRCLE
  5
1E4
330
1F
100
AcDbEntity
  8
SLD-0
100
AcDbCircle
 10
823.174599
 20
136.732824
 30
0.0
 40
1.499999999999886
  0
CIRCLE
  5
1E5
330
1F
100
AcDbEntity
  8
SLD-0
100
AcDbCircle
 10
838.38076
 20
150.56296
 30
0.0
 40
1.5
  0
ARC
  5
1E6
330
1F
100
AcDbEntity
  8
SLD-0
100
AcDbCircle
 10
838.6710161197
 20
137.0660809264
 30
0.0
 40
17.99999980720595
100
AcDbArc
 50
271.231977376
 51
91.231977376
  0
ARC
  5
1E7
330
1F
100
AcDbEntity
  8
SLD-0
100
AcDbCircle
 10
785.3370954582
 20
357.6027003075
 30
0.0
 40
209.3469450135171
100
AcDbArc
 50
251.9738344123
 51
284.6500545813
  0
ARC
  5
1E8
330
1F
100
AcDbEntity
  8
SLD-0
100
AcDbCircle
 10
785.3752113937
 20
520.2501658355
 30
0.0
 40
404.7556986481102
100
AcDbArc
 50
259.4591676681
 51
277.6216056107
  0
CIRCLE
  5
1E9
330
1F
100
AcDbEntity
  8
SLD-0
100
AcDbCircle
 10
811.704794
 20
141.709549
 30
0.0
 40
1.899999999999977
  0
CIRCLE
  5
1EA
330
1F
100
AcDbEntity
  8
SLD-0
100
AcDbCircle
 10
794.800267
 20
124.956945
 30
0.0
 40
1.899999999999977
  0
CIRCLE
  5
1EB
330
1F
100
AcDbEntity
  8
SLD-0
100
AcDbCircle
 10
768.264647
 20
135.551965
 30
0.0
 40
1.899999999999977
  0
CIRCLE
  5
1EC
330
1F
100
AcDbEntity
  8
SLD-0
100
AcDbCircle
 10
562.627145
 20
243.509036
 30
0.0
 40
1.919999999999959
  0
CIRCLE
  5
1ED
330
1F
100
AcDbEntity
  8
SLD-0
100
AcDbCircle
 10
562.627145
 20
233.509036
 30
0.0
 40
1.919999999999959
  0
CIRCLE
  5
1EE
330
1F
100
AcDbEntity
  8
SLD-0
100
AcDbCircle
 10
633.826579
 20
233.509036
 30
0.0
 40
1.920000000000073
  0
CIRCLE
  5
1EF
330
1F
100
AcDbEntity
  8
SLD-0
100
AcDbCircle
 10
633.826579
 20
243.509036
 30
0.0
 40
1.920000000000073
  0
CIRCLE
  5
1F0
330
1F
100
AcDbEntity
  8
SLD-0
100
AcDbCircle
 10
600.309202
 20
38.766912
 30
0.0
 40
1.5
  0
ARC
  5
1F1
330
1F
100
AcDbEntity
  8
SLD-0
100
AcDbCircle
 10
481.7007666515
 20
41.06691025
 30
0.0
 40
66.88849172209335
100
AcDbArc
 50
129.1659185127
 51
230.8340814873
  0
ARC
  5
1F2
330
1F
100
AcDbEntity
  8
SLD-0
100
AcDbCircle
 10
438.0130999408
 20
41.06691025
 30
0.0
 40
77.24132346200167
100
AcDbArc
 50
317.8246140211
 51
42.1753859789
  0
MTEXT
  5
1F4
330
1F
100
AcDbEntity
  8
0
  6
Continuous
 62
     7
100
AcDbMText
 10
0.0
 20
41.6694529712
 30
0.0
 40
14.94028
 41
0.0
 46
0.0
 71
     1
 72
     1
  1
SOLIDWORKS Educational Product.
  7
SLDTEXTSTYLE0
 73
     1
 44
1.0
  0
MTEXT
  5
1F5
330
1F
100
AcDbEntity
  8
0
  6
Continuous
 62
     7
100
AcDbMText
 10
0.0
 20
19.2590329712
 30
0.0
 40
14.94028
 41
0.0
 46
0.0
 71
     1
 72
     1
  1
Solo per uso didattico.
  7
SLDTEXTSTYLE0
 73
     1
 44
1.0
  0
ENDSEC
  0
SECTION
  2
OBJECTS
  0
DICTIONARY
  5
C
330
0
100
AcDbDictionary
281
     1
  3
ACAD_DETAILVIEWSTYLE
350
1FD
  3
ACAD_GROUP
350
D
  3
ACAD_LAYOUT
350
1A
  3
ACAD_MATERIAL
350
43
  3
ACAD_MLEADERSTYLE
350
6B
  3
ACAD_MLINESTYLE
350
17
  3
ACAD_PLOTSETTINGS
350
19
  3
ACAD_PLOTSTYLENAME
350
E
  3
ACAD_SCALELIST
350
47
  3
ACAD_SECTIONVIEWSTYLE
350
1FE
  3
ACAD_TABLESTYLE
350
69
  3
ACAD_VISUALSTYLE
350
2A
  3
ACDB_RECOMPOSE_DATA
350
1FA
  3
AcDbVariableDictionary
350
1F6
  0
SUN
  5
6D
330
29
100
AcDbSun
 90
        1
290
     0
 63
     7
421
 16777215
 40
1.0
291
     1
 91
  2455826
 92
 54000000
292
     0
 70
     2
 71
   256
280
     1
  0
DICTIONARY
  5
1FD
102
{ACAD_REACTORS
330
C
102
}
330
C
100
AcDbDictionary
281
     1
  0
DICTIONARY
  5
D
102
{ACAD_REACTORS
330
C
102
}
330
C
100
AcDbDictionary
281
     1
  0
DICTIONARY
  5
1A
102
{ACAD_REACTORS
330
C
102
}
330
C
100
AcDbDictionary
281
     1
  3
Layout1
350
1E
  3
Layout2
350
26
  3
Model
350
22
  0
DICTIONARY
  5
43
102
{ACAD_REACTORS
330
C
102
}
330
C
100
AcDbDictionary
281
     1
  3
ByBlock
350
45
  3
ByLayer
350
44
  3
Global
350
46
  0
DICTIONARY
  5
6B
102
{ACAD_REACTORS
330
C
102
}
330
C
100
AcDbDictionary
281
     1
  3
Standard
350
6C
  0
DICTIONARY
  5
17
102
{ACAD_REACTORS
330
C
102
}
330
C
100
AcDbDictionary
281
     1
  3
Standard
350
18
  0
DICTIONARY
  5
19
102
{ACAD_REACTORS
330
C
102
}
330
C
100
AcDbDictionary
281
     1
  0
ACDBDICTIONARYWDFLT
  5
E
102
{ACAD_REACTORS
330
C
102
}
330
C
100
AcDbDictionary
281
     1
  3
Normal
350
F
100
AcDbDictionaryWithDefault
340
F
  0
DICTIONARY
  5
47
102
{ACAD_REACTORS
330
C
102
}
330
C
100
AcDbDictionary
281
     1
  3
A0
350
48
  3
A1
350
49
  3
A2
350
4A
  3
A3
350
4B
  3
A4
350
4C
  3
A5
350
4D
  3
A6
350
4E
  3
A7
350
4F
  3
A8
350
50
  3
A9
350
51
  3
B0
350
52
  3
B1
350
53
  3
B2
350
54
  3
B3
350
55
  3
B4
350
56
  3
B5
350
57
  3
B6
350
58
  3
B7
350
59
  3
B8
350
5A
  3
B9
350
5B
  3
C0
350
5C
  3
C1
350
5D
  3
C2
350
5E
  3
C3
350
5F
  3
C4
350
60
  3
C5
350
61
  3
C6
350
62
  3
C7
350
63
  3
C8
350
64
  3
C9
350
65
  3
D0
350
66
  3
D1
350
67
  3
D2
350
68
  0
DICTIONARY
  5
1FE
102
{ACAD_REACTORS
330
C
102
}
330
C
100
AcDbDictionary
281
     1
  0
DICTIONARY
  5
69
102
{ACAD_REACTORS
330
C
102
}
330
C
100
AcDbDictionary
281
     1
  3
Standard
350
6A
  0
DICTIONARY
  5
2A
102
{ACAD_REACTORS
330
C
102
}
330
C
100
AcDbDictionary
281
     1
  3
2dWireframe
350
2F
  3
Basic
350
32
  3
Brighten
350
36
  3
ColorChange
350
3A
  3
Conceptual
350
34
  3
Dim
350
35
  3
EdgeColorOff
350
3D
  3
Facepattern
350
39
  3
Flat
350
2B
  3
FlatWithEdges
350
2C
  3
Gouraud
350
2D
  3
GouraudWithEdges
350
2E
  3
Hidden
350
31
  3
JitterOff
350
3B
  3
Linepattern
350
38
  3
OverhangOff
350
3C
  3
Realistic
350
33
  3
Shaded
350
42
  3
Shaded with edges
350
41
  3
Shades of Gray
350
3E
  3
Sketchy
350
3F
  3
Thicken
350
37
  3
Wireframe
350
30
  3
X-Ray
350
40
  0
XRECORD
  5
1FA
102
{ACAD_REACTORS
330
C
102
}
330
C
100
AcDbXrecord
280
     1
 90
        1
330
6A
  0
DICTIONARY
  5
1F6
102
{ACAD_REACTORS
330
C
102
}
330
C
100
AcDbDictionary
281
     1
  3
CANNOSCALE
350
1F7
  3
CENTEREXE
350
1FF
  3
CENTERLTYPEFILE
350
200
  3
CMLEADERSTYLE
350
1FC
  3
CTABLESTYLE
350
1FB
  0
LAYOUT
  5
1E
102
{ACAD_REACTORS
330
1A
102
}
330
1A
100
AcDbPlotSettings
  1

  2
none_device
  4

  6

 40
0.0
 41
0.0
 42
0.0
 43
0.0
 44
0.0
 45
0.0
 46
0.0
 47
0.0
 48
0.0
 49
0.0
140
0.0
141
0.0
142
1.0
143
1.0
 70
   688
 72
     1
 73
     0
 74
     5
  7

 75
    16
 76
     0
 77
     2
 78
   300
147
1.0
148
0.0
149
0.0
100
AcDbLayout
  1
Layout1
 70
     1
 71
     1
 10
0.0
 20
0.0
 11
420.0
 21
297.0
 12
0.0
 22
0.0
 32
0.0
 14
1.0000000000E+20
 24
1.0000000000E+20
 34
1.0000000000E+20
 15
-1.0000000000E+20
 25
-1.0000000000E+20
 35
-1.0000000000E+20
146
0.0
 13
0.0
 23
0.0
 33
0.0
 16
1.0
 26
0.0
 36
0.0
 17
0.0
 27
1.0
 37
0.0
 76
     0
330
1B
  0
LAYOUT
  5
26
102
{ACAD_REACTORS
330
1A
102
}
330
1A
100
AcDbPlotSettings
  1

  2
none_device
  4

  6

 40
0.0
 41
0.0
 42
0.0
 43
0.0
 44
0.0
 45
0.0
 46
0.0
 47
0.0
 48
0.0
 49
0.0
140
0.0
141
0.0
142
1.0
143
1.0
 70
   688
 72
     1
 73
     0
 74
     5
  7

 75
    16
 76
     0
 77
     2
 78
   300
147
1.0
148
0.0
149
0.0
100
AcDbLayout
  1
Layout2
 70
     1
 71
     2
 10
0.0
 20
0.0
 11
0.0
 21
0.0
 12
0.0
 22
0.0
 32
0.0
 14
0.0
 24
0.0
 34
0.0
 15
0.0
 25
0.0
 35
0.0
146
0.0
 13
0.0
 23
0.0
 33
0.0
 16
1.0
 26
0.0
 36
0.0
 17
0.0
 27
1.0
 37
0.0
 76
     0
330
23
  0
LAYOUT
  5
22
102
{ACAD_REACTORS
330
1A
102
}
330
1A
100
AcDbPlotSettings
  1

  2
none_device
  4
Letter_(8.50_x_11.00_Inches)
  6

 40
6.35
 41
6.35
 42
6.35000508
 43
6.35000508
 44
215.9
 45
279.4
 46
0.0
 47
0.0
 48
0.0
 49
0.0
140
0.0
141
0.0
142
1.0
143
1.0
 70
  1712
 72
     1
 73
     0
 74
     0
  7

 75
     0
 76
     0
 77
     2
 78
   300
147
1.0
148
0.0
149
0.0
100
AcDbLayout
  1
Model
 70
     1
 71
     0
 10
0.0
 20
0.0
 11
1117.6
 21
863.6
 12
0.0
 22
0.0
 32
0.0
 14
0.0
 24
0.0
 34
0.0
 15
1117.6
 25
863.6
 35
0.0
146
0.0
 13
0.0
 23
0.0
 33
0.0
 16
1.0
 26
0.0
 36
0.0
 17
0.0
 27
1.0
 37
0.0
 76
     0
330
1F
331
29
  0
MATERIAL
  5
45
102
{ACAD_REACTORS
330
43
102
}
330
43
100
AcDbMaterial
  1
ByBlock
 72
     1
 94
      127
  0
MATERIAL
  5
44
102
{ACAD_REACTORS
330
43
102
}
330
43
100
AcDbMaterial
  1
ByLayer
 72
     1
 94
      127
  0
MATERIAL
  5
46
102
{ACAD_REACTORS
330
43
102
}
330
43
100
AcDbMaterial
  1
Global
 72
     1
 94
      127
  0
MLEADERSTYLE
  5
6C
102
{ACAD_REACTORS
330
6B
102
}
330
6B
100
AcDbMLeaderStyle
179
     2
170
     2
171
     1
172
     0
 90
        2
 40
0.0
 41
0.0
173
     1
 91
-1056964608
340
14
 92
       -2
290
     1
 42
2.0
291
     1
 43
8.0
  3
Standard
341
0
 44
4.0
300

342
11
174
     1
178
     6
175
     1
176
     0
 93
-1056964608
 45
4.0
292
     0
297
     0
 46
4.0
343
0
 94
-1056964608
 47
1.0
 49
1.0
140
1.0
293
     1
141
0.0
294
     1
177
     0
142
1.0
295
     0
296
     0
143
3.75
271
     0
272
     9
273
     9
298
     0
  0
MLINESTYLE
  5
18
102
{ACAD_REACTORS
330
17
102
}
330
17
100
AcDbMlineStyle
  2
Standard
 70
     0
  3

 62
   256
 51
90.0
 52
90.0
 71
     2
 49
0.5
 62
   256
  6
BYLAYER
 49
-0.5
 62
   256
  6
BYLAYER
  0
ACDBPLACEHOLDER
  5
F
102
{ACAD_REACTORS
330
E
102
}
330
E
  0
SCALE
  5
48
102
{ACAD_REACTORS
330
47
102
}
330
47
100
AcDbScale
 70
     0
300
1:1
140
1.0
141
1.0
290
     1
  0
SCALE
  5
49
102
{ACAD_REACTORS
330
47
102
}
330
47
100
AcDbScale
 70
     0
300
1:2
140
1.0
141
2.0
290
     0
  0
SCALE
  5
4A
102
{ACAD_REACTORS
330
47
102
}
330
47
100
AcDbScale
 70
     0
300
1:4
140
1.0
141
4.0
290
     0
  0
SCALE
  5
4B
102
{ACAD_REACTORS
330
47
102
}
330
47
100
AcDbScale
 70
     0
300
1:5
140
1.0
141
5.0
290
     0
  0
SCALE
  5
4C
102
{ACAD_REACTORS
330
47
102
}
330
47
100
AcDbScale
 70
     0
300
1:8
140
1.0
141
8.0
290
     0
  0
SCALE
  5
4D
102
{ACAD_REACTORS
330
47
102
}
330
47
100
AcDbScale
 70
     0
300
1:10
140
1.0
141
10.0
290
     0
  0
SCALE
  5
4E
102
{ACAD_REACTORS
330
47
102
}
330
47
100
AcDbScale
 70
     0
300
1:16
140
1.0
141
16.0
290
     0
  0
SCALE
  5
4F
102
{ACAD_REACTORS
330
47
102
}
330
47
100
AcDbScale
 70
     0
300
1:20
140
1.0
141
20.0
290
     0
  0
SCALE
  5
50
102
{ACAD_REACTORS
330
47
102
}
330
47
100
AcDbScale
 70
     0
300
1:30
140
1.0
141
30.0
290
     0
  0
SCALE
  5
51
102
{ACAD_REACTORS
330
47
102
}
330
47
100
AcDbScale
 70
     0
300
1:40
140
1.0
141
40.0
290
     0
  0
SCALE
  5
52
102
{ACAD_REACTORS
330
47
102
}
330
47
100
AcDbScale
 70
     0
300
1:50
140
1.0
141
50.0
290
     0
  0
SCALE
  5
53
102
{ACAD_REACTORS
330
47
102
}
330
47
100
AcDbScale
 70
     0
300
1:100
140
1.0
141
100.0
290
     0
  0
SCALE
  5
54
102
{ACAD_REACTORS
330
47
102
}
330
47
100
AcDbScale
 70
     0
300
2:1
140
2.0
141
1.0
290
     0
  0
SCALE
  5
55
102
{ACAD_REACTORS
330
47
102
}
330
47
100
AcDbScale
 70
     0
300
4:1
140
4.0
141
1.0
290
     0
  0
SCALE
  5
56
102
{ACAD_REACTORS
330
47
102
}
330
47
100
AcDbScale
 70
     0
300
8:1
140
8.0
141
1.0
290
     0
  0
SCALE
  5
57
102
{ACAD_REACTORS
330
47
102
}
330
47
100
AcDbScale
 70
     0
300
10:1
140
10.0
141
1.0
290
     0
  0
SCALE
  5
58
102
{ACAD_REACTORS
330
47
102
}
330
47
100
AcDbScale
 70
     0
300
100:1
140
100.0
141
1.0
290
     0
  0
SCALE
  5
59
102
{ACAD_REACTORS
330
47
102
}
330
47
100
AcDbScale
 70
     0
300
1/128" = 1'-0"
140
0.0078125
141
12.0
290
     0
  0
SCALE
  5
5A
102
{ACAD_REACTORS
330
47
102
}
330
47
100
AcDbScale
 70
     0
300
1/64" = 1'-0"
140
0.015625
141
12.0
290
     0
  0
SCALE
  5
5B
102
{ACAD_REACTORS
330
47
102
}
330
47
100
AcDbScale
 70
     0
300
1/32" = 1'-0"
140
0.03125
141
12.0
290
     0
  0
SCALE
  5
5C
102
{ACAD_REACTORS
330
47
102
}
330
47
100
AcDbScale
 70
     0
300
1/16" = 1'-0"
140
0.0625
141
12.0
290
     0
  0
SCALE
  5
5D
102
{ACAD_REACTORS
330
47
102
}
330
47
100
AcDbScale
 70
     0
300
3/32" = 1'-0"
140
0.09375
141
12.0
290
     0
  0
SCALE
  5
5E
102
{ACAD_REACTORS
330
47
102
}
330
47
100
AcDbScale
 70
     0
300
1/8" = 1'-0"
140
0.125
141
12.0
290
     0
  0
SCALE
  5
5F
102
{ACAD_REACTORS
330
47
102
}
330
47
100
AcDbScale
 70
     0
300
3/16" = 1'-0"
140
0.1875
141
12.0
290
     0
  0
SCALE
  5
60
102
{ACAD_REACTORS
330
47
102
}
330
47
100
AcDbScale
 70
     0
300
1/4" = 1'-0"
140
0.25
141
12.0
290
     0
  0
SCALE
  5
61
102
{ACAD_REACTORS
330
47
102
}
330
47
100
AcDbScale
 70
     0
300
3/8" = 1'-0"
140
0.375
141
12.0
290
     0
  0
SCALE
  5
62
102
{ACAD_REACTORS
330
47
102
}
330
47
100
AcDbScale
 70
     0
300
1/2" = 1'-0"
140
0.5
141
12.0
290
     0
  0
SCALE
  5
63
102
{ACAD_REACTORS
330
47
102
}
330
47
100
AcDbScale
 70
     0
300
3/4" = 1'-0"
140
0.75
141
12.0
290
     0
  0
SCALE
  5
64
102
{ACAD_REACTORS
330
47
102
}
330
47
100
AcDbScale
 70
     0
300
1" = 1'-0"
140
1.0
141
12.0
290
     0
  0
SCALE
  5
65
102
{ACAD_REACTORS
330
47
102
}
330
47
100
AcDbScale
 70
     0
300
1-1/2" = 1'-0"
140
1.5
141
12.0
290
     0
  0
SCALE
  5
66
102
{ACAD_REACTORS
330
47
102
}
330
47
100
AcDbScale
 70
     0
300
3" = 1'-0"
140
3.0
141
12.0
290
     0
  0
SCALE
  5
67
102
{ACAD_REACTORS
330
47
102
}
330
47
100
AcDbScale
 70
     0
300
6" = 1'-0"
140
6.0
141
12.0
290
     0
  0
SCALE
  5
68
102
{ACAD_REACTORS
330
47
102
}
330
47
100
AcDbScale
 70
     0
300
1'-0" = 1'-0"
140
12.0
141
12.0
290
     0
  0
TABLESTYLE
  5
6A
102
{ACAD_REACTORS
330
69
102
}
102
{ACAD_XDICTIONARY
360
1F8
102
}
330
69
100
AcDbTableStyle
  3
Standard
 70
     0
 71
     0
 40
0.06
 41
0.06
280
     0
281
     0
  7
STANDARD
140
4.5
170
     2
 62
     0
 63
   257
283
     0
 90
        4
 91
        0
  1

274
    -2
284
     1
 64
     0
275
    -2
285
     1
 65
     0
276
    -2
286
     1
 66
     0
277
    -2
287
     1
 67
     0
278
    -2
288
     1
 68
     0
279
    -2
289
     1
 69
     0
  7
STANDARD
140
6.0
170
     5
 62
     0
 63
   257
283
     0
 90
        4
 91
        0
  1

274
    -2
284
     1
 64
     0
275
    -2
285
     1
 65
     0
276
    -2
286
     1
 66
     0
277
    -2
287
     1
 67
     0
278
    -2
288
     1
 68
     0
279
    -2
289
     1
 69
     0
  7
STANDARD
140
4.5
170
     5
 62
     0
 63
   257
283
     0
 90
        4
 91
        0
  1

274
    -2
284
     1
 64
     0
275
    -2
285
     1
 65
     0
276
    -2
286
     1
 66
     0
277
    -2
287
     1
 67
     0
278
    -2
288
     1
 68
     0
279
    -2
289
     1
 69
     0
  0
VISUALSTYLE
  5
2F
102
{ACAD_REACTORS
330
2A
102
}
330
2A
100
AcDbVisualStyle
  2
2dWireframe
 70
     4
177
     3
291
     0
 70
    58
 90
        0
176
     1
 90
        2
176
     1
 90
        0
176
     1
 90
        0
176
     1
 40
0.6
176
     1
 40
30.0
176
     1
 62
     7
420
 16777215
176
     1
 90
        1
176
     1
 90
        4
176
     1
 62
     7
176
     1
 62
   257
176
     1
 90
        1
176
     1
 90
        1
176
     1
 40
1.0
176
     1
 90
        0
176
     1
 62
   257
176
     1
 40
1.0
176
     1
 90
        1
176
     1
 90
        6
176
     1
 90
        2
176
     1
 62
     7
176
     1
 90
        5
176
     1
 90
        0
176
     1
 90
        0
176
     1
290
     0
176
     1
 90
        1
176
     1
 40
0.0
176
     1
 90
        0
176
     1
290
     1
176
     1
290
     1
176
     1
290
     0
176
     1
290
     0
176
     1
290
     0
176
     1
290
     0
176
     1
290
     0
176
     1
290
     0
176
     1
290
     0
176
     1
 90
       50
176
     1
 40
0.0
176
     1
 40
1.0
176
     1
 90
        0
176
     1
 62
    18
420
        0
176
     1
 90
       50
176
     1
 90
        3
176
     1
 62
     5
420
      255
176
     1
290
     0
176
     1
 90
       50
176
     1
 90
       50
176
     1
 90
       50
176
     1
290
     0
176
     1
 90
       50
176
     1
 62
   256
176
     0
 40
1.0
176
     0
 90
        2
176
     1
  1
strokes_ogs.tif
176
     1
290
     0
176
     1
 40
1.0
176
     1
 40
1.0
176
     1
  0
VISUALSTYLE
  5
32
102
{ACAD_REACTORS
330
2A
102
}
330
2A
100
AcDbVisualStyle
  2
Basic
 70
     7
177
     3
291
     1
 70
    58
 90
        1
176
     1
 90
        0
176
     1
 90
        1
176
     1
 90
        0
176
     1
 40
0.6
176
     1
 40
30.0
176
     1
 62
     7
420
 16777215
176
     1
 90
        0
176
     1
 90
        4
176
     1
 62
     7
176
     1
 62
   257
176
     1
 90
        1
176
     1
 90
        1
176
     1
 40
1.0
176
     1
 90
        8
176
     1
 62
     7
176
     1
 40
1.0
176
     1
 90
        1
176
     1
 90
        6
176
     1
 90
        2
176
     1
 62
     7
176
     1
 90
        5
176
     1
 90
        0
176
     1
 90
        0
176
     1
290
     0
176
     1
 90
        1
176
     1
 40
0.0
176
     1
 90
        0
176
     1
290
     0
176
     1
290
     1
176
     1
290
     1
176
     1
290
     0
176
     1
290
     0
176
     1
290
     0
176
     1
290
     0
176
     1
290
     0
176
     1
290
     0
176
     1
 90
       50
176
     1
 40
0.0
176
     1
 40
1.0
176
     1
 90
        0
176
     1
 62
    18
420
        0
176
     1
 90
       50
176
     1
 90
        3
176
     1
 62
     5
420
      255
176
     1
290
     0
176
     1
 90
       50
176
     1
 90
       50
176
     1
 90
       50
176
     1
290
     0
176
     1
 90
       50
176
     1
 62
   256
176
     0
 40
1.0
176
     0
 90
        2
176
     1
  1
strokes_ogs.tif
176
     1
290
     0
176
     1
 40
1.0
176
     1
 40
1.0
176
     1
  0
VISUALSTYLE
  5
36
102
{ACAD_REACTORS
330
2A
102
}
330
2A
100
AcDbVisualStyle
  2
Brighten
 70
    12
177
     3
291
     1
 70
    58
 90
        2
176
     1
 90
        2
176
     1
 90
        0
176
     1
 90
        0
176
     1
 40
0.6
176
     1
 40
30.0
176
     1
 62
     7
420
 16777215
176
     1
 90
        1
176
     1
 90
        4
176
     1
 62
     7
176
     1
 62
   257
176
     1
 90
        1
176
     1
 90
        1
176
     1
 40
1.0
176
     1
 90
        8
176
     1
 62
     7
176
     1
 40
1.0
176
     1
 90
        1
176
     1
 90
        6
176
     1
 90
        2
176
     1
 62
     7
176
     1
 90
        5
176
     1
 90
        0
176
     1
 90
        0
176
     1
290
     0
176
     1
 90
        1
176
     1
 40
50.0
176
     1
 90
        0
176
     1
290
     0
176
     1
290
     1
176
     1
290
     1
176
     1
290
     0
176
     1
290
     0
176
     1
290
     0
176
     1
290
     0
176
     1
290
     0
176
     1
290
     0
176
     1
 90
       50
176
     1
 40
0.0
176
     1
 40
1.0
176
     1
 90
        0
176
     1
 62
    18
420
        0
176
     1
 90
       50
176
     1
 90
        3
176
     1
 62
     5
420
      255
176
     1
290
     0
176
     1
 90
       50
176
     1
 90
       50
176
     1
 90
       50
176
     1
290
     0
176
     1
 90
       50
176
     1
 62
   256
176
     0
 40
1.0
176
     0
 90
        2
176
     1
  1
strokes_ogs.tif
176
     1
290
     0
176
     1
 40
1.0
176
     1
 40
1.0
176
     1
  0
VISUALSTYLE
  5
3A
102
{ACAD_REACTORS
330
2A
102
}
330
2A
100
AcDbVisualStyle
  2
ColorChange
 70
    16
177
     3
291
     1
 70
    58
 90
        2
176
     1
 90
        2
176
     1
 90
        3
176
     1
 90
        0
176
     1
 40
0.6
176
     1
 40
30.0
176
     1
 62
     8
420
  8421504
176
     1
 90
        1
176
     1
 90
        4
176
     1
 62
     7
176
     1
 62
   257
176
     1
 90
        1
176
     1
 90
        1
176
     1
 40
1.0
176
     1
 90
        8
176
     1
 62
     8
420
  8421504
176
     1
 40
1.0
176
     1
 90
        1
176
     1
 90
        6
176
     1
 90
        2
176
     1
 62
     7
176
     1
 90
        5
176
     1
 90
        0
176
     1
 90
        0
176
     1
290
     0
176
     1
 90
        1
176
     1
 40
0.0
176
     1
 90
        0
176
     1
290
     0
176
     1
290
     1
176
     1
290
     1
176
     1
290
     0
176
     1
290
     0
176
     1
290
     0
176
     1
290
     0
176
     1
290
     0
176
     1
290
     0
176
     1
 90
       50
176
     1
 40
0.0
176
     1
 40
1.0
176
     1
 90
        0
176
     1
 62
    18
420
        0
176
     1
 90
       50
176
     1
 90
        3
176
     1
 62
     5
420
      255
176
     1
290
     0
176
     1
 90
       50
176
     1
 90
       50
176
     1
 90
       50
176
     1
290
     0
176
     1
 90
       50
176
     1
 62
   256
176
     0
 40
1.0
176
     0
 90
        2
176
     1
  1
strokes_ogs.tif
176
     1
290
     0
176
     1
 40
1.0
176
     1
 40
1.0
176
     1
  0
VISUALSTYLE
  5
34
102
{ACAD_REACTORS
330
2A
102
}
330
2A
100
AcDbVisualStyle
  2
Conceptual
 70
     9
177
     3
291
     0
 70
    58
 90
        3
176
     1
 90
        2
176
     1
 90
        0
176
     1
 90
        0
176
     1
 40
0.6
176
     1
 40
30.0
176
     1
 62
     7
420
 16777215
176
     1
 90
        2
176
     1
 90
        2
176
     1
 62
     7
176
     1
 62
   257
176
     1
 90
        1
176
     1
 90
        1
176
     1
 40
179.0
176
     1
 90
        8
176
     1
 62
     7
176
     1
 40
1.0
176
     1
 90
        1
176
     1
 90
        6
176
     1
 90
        2
176
     1
 62
     7
176
     1
 90
        3
176
     1
 90
        0
176
     1
 90
        0
176
     1
290
     0
176
     1
 90
        1
176
     1
 40
0.0
176
     1
 90
        0
176
     1
290
     0
176
     1
290
     1
176
     1
290
     1
176
     1
290
     0
176
     1
290
     0
176
     1
290
     0
176
     1
290
     0
176
     1
290
     0
176
     1
290
     0
176
     1
 90
       50
176
     1
 40
0.0
176
     1
 40
1.0
176
     1
 90
        0
176
     1
 62
    18
420
        0
176
     1
 90
       50
176
     1
 90
        3
176
     1
 62
     5
420
      255
176
     1
290
     0
176
     1
 90
       50
176
     1
 90
       50
176
     1
 90
       50
176
     1
290
     0
176
     1
 90
       50
176
     1
 62
   256
176
     0
 40
1.0
176
     0
 90
        2
176
     1
  1
strokes_ogs.tif
176
     1
290
     0
176
     1
 40
1.0
176
     1
 40
1.0
176
     1
  0
VISUALSTYLE
  5
35
102
{ACAD_REACTORS
330
2A
102
}
330
2A
100
AcDbVisualStyle
  2
Dim
 70
    11
177
     3
291
     1
 70
    58
 90
        2
176
     1
 90
        2
176
     1
 90
        0
176
     1
 90
        0
176
     1
 40
0.6
176
     1
 40
30.0
176
     1
 62
     7
420
 16777215
176
     1
 90
        1
176
     1
 90
        4
176
     1
 62
     7
176
     1
 62
   257
176
     1
 90
        1
176
     1
 90
        1
176
     1
 40
1.0
176
     1
 90
        8
176
     1
 62
     7
176
     1
 40
1.0
176
     1
 90
        1
176
     1
 90
        6
176
     1
 90
        2
176
     1
 62
     7
176
     1
 90
        5
176
     1
 90
        0
176
     1
 90
        0
176
     1
290
     0
176
     1
 90
        1
176
     1
 40
-50.0
176
     1
 90
        0
176
     1
290
     0
176
     1
290
     1
176
     1
290
     1
176
     1
290
     0
176
     1
290
     0
176
     1
290
     0
176
     1
290
     0
176
     1
290
     0
176
     1
290
     0
176
     1
 90
       50
176
     1
 40
0.0
176
     1
 40
1.0
176
     1
 90
        0
176
     1
 62
    18
420
        0
176
     1
 90
       50
176
     1
 90
        3
176
     1
 62
     5
420
      255
176
     1
290
     0
176
     1
 90
       50
176
     1
 90
       50
176
     1
 90
       50
176
     1
290
     0
176
     1
 90
       50
176
     1
 62
   256
176
     0
 40
1.0
176
     0
 90
        2
176
     1
  1
strokes_ogs.tif
176
     1
290
     0
176
     1
 40
1.0
176
     1
 40
1.0
176
     1
  0
VISUALSTYLE
  5
3D
102
{ACAD_REACTORS
330
2A
102
}
330
2A
100
AcDbVisualStyle
  2
EdgeColorOff
 70
    22
177
     3
291
     1
 70
    58
 90
        2
176
     0
 90
        2
176
     0
 90
        0
176
     0
 90
        0
176
     0
 40
0.6
176
     0
 40
30.0
176
     0
 62
     7
420
 16777215
176
     0
 90
        1
176
     0
 90
        4
176
     0
 62
     7
176
     0
 62
   257
176
     0
 90
        1
176
     0
 90
        1
176
     0
 40
1.0
176
     0
 90
        8
176
     2
 62
     7
176
     0
 40
1.0
176
     0
 90
        1
176
     0
 90
        6
176
     0
 90
        2
176
     0
 62
     7
176
     0
 90
        5
176
     0
 90
        0
176
     0
 90
        0
176
     0
290
     0
176
     0
 90
        1
176
     0
 40
0.0
176
     0
 90
        0
176
     0
290
     0
176
     0
290
     1
176
     0
290
     1
176
     0
290
     0
176
     0
290
     0
176
     0
290
     0
176
     0
290
     0
176
     0
290
     0
176
     0
290
     0
176
     0
 90
       50
176
     0
 40
0.0
176
     0
 40
1.0
176
     0
 90
        0
176
     0
 62
    18
420
        0
176
     0
 90
       50
176
     0
 90
        3
176
     0
 62
     5
420
      255
176
     0
290
     0
176
     0
 90
       50
176
     0
 90
       50
176
     0
 90
       50
176
     0
290
     0
176
     0
 90
       50
176
     0
 62
   256
176
     0
 40
1.0
176
     0
 90
        2
176
     0
  1
strokes_ogs.tif
176
     0
290
     0
176
     0
 40
1.0
176
     0
 40
1.0
176
     0
  0
VISUALSTYLE
  5
39
102
{ACAD_REACTORS
330
2A
102
}
330
2A
100
AcDbVisualStyle
  2
Facepattern
 70
    15
177
     3
291
     1
 70
    58
 90
        2
176
     1
 90
        2
176
     1
 90
        0
176
     1
 90
        0
176
     1
 40
0.6
176
     1
 40
30.0
176
     1
 62
     7
420
 16777215
176
     1
 90
        1
176
     1
 90
        4
176
     1
 62
     7
176
     1
 62
   257
176
     1
 90
        1
176
     1
 90
        1
176
     1
 40
1.0
176
     1
 90
        8
176
     1
 62
     7
176
     1
 40
1.0
176
     1
 90
        1
176
     1
 90
        6
176
     1
 90
        2
176
     1
 62
     7
176
     1
 90
        5
176
     1
 90
        0
176
     1
 90
        0
176
     1
290
     0
176
     1
 90
        1
176
     1
 40
0.0
176
     1
 90
        0
176
     1
290
     0
176
     1
290
     1
176
     1
290
     1
176
     1
290
     0
176
     1
290
     0
176
     1
290
     0
176
     1
290
     0
176
     1
290
     0
176
     1
290
     0
176
     1
 90
       50
176
     1
 40
0.0
176
     1
 40
1.0
176
     1
 90
        0
176
     1
 62
    18
420
        0
176
     1
 90
       50
176
     1
 90
        3
176
     1
 62
     5
420
      255
176
     1
290
     0
176
     1
 90
       50
176
     1
 90
       50
176
     1
 90
       50
176
     1
290
     0
176
     1
 90
       50
176
     1
 62
   256
176
     0
 40
1.0
176
     0
 90
        2
176
     1
  1
strokes_ogs.tif
176
     1
290
     0
176
     1
 40
1.0
176
     1
 40
1.0
176
     1
  0
VISUALSTYLE
  5
2B
102
{ACAD_REACTORS
330
2A
102
}
330
2A
100
AcDbVisualStyle
  2
Flat
 70
     0
177
     3
291
     1
 70
    58
 90
        2
176
     1
 90
        1
176
     1
 90
        1
176
     1
 90
        2
176
     1
 40
0.6
176
     1
 40
30.0
176
     1
 62
     7
420
 16777215
176
     1
 90
        0
176
     1
 90
        0
176
     1
 62
     7
176
     1
 62
   257
176
     1
 90
        1
176
     1
 90
        1
176
     1
 40
1.0
176
     1
 90
        8
176
     1
 62
     7
176
     1
 40
1.0
176
     1
 90
        1
176
     1
 90
        6
176
     1
 90
        2
176
     1
 62
     7
176
     1
 90
        5
176
     1
 90
        0
176
     1
 90
        0
176
     1
290
     0
176
     1
 90
       13
176
     1
 40
0.0
176
     1
 90
        0
176
     1
290
     0
176
     1
290
     1
176
     1
290
     1
176
     1
290
     0
176
     1
290
     0
176
     1
290
     0
176
     1
290
     0
176
     1
290
     0
176
     1
290
     0
176
     1
 90
       50
176
     1
 40
0.0
176
     1
 40
1.0
176
     1
 90
        0
176
     1
 62
    18
420
        0
176
     1
 90
       50
176
     1
 90
        3
176
     1
 62
     5
420
      255
176
     1
290
     0
176
     1
 90
       50
176
     1
 90
       50
176
     1
 90
       50
176
     1
290
     0
176
     1
 90
       50
176
     1
 62
   256
176
     0
 40
1.0
176
     0
 90
        2
176
     1
  1
strokes_ogs.tif
176
     1
290
     0
176
     1
 40
1.0
176
     1
 40
1.0
176
     1
  0
VISUALSTYLE
  5
2C
102
{ACAD_REACTORS
330
2A
102
}
330
2A
100
AcDbVisualStyle
  2
FlatWithEdges
 70
     1
177
     3
291
     1
 70
    58
 90
        2
176
     1
 90
        1
176
     1
 90
        1
176
     1
 90
        2
176
     1
 40
0.6
176
     1
 40
30.0
176
     1
 62
     7
420
 16777215
176
     1
 90
        1
176
     1
 90
        0
176
     1
 62
     7
176
     1
 62
   257
176
     1
 90
        1
176
     1
 90
        1
176
     1
 40
1.0
176
     1
 90
        0
176
     1
 62
   257
176
     1
 40
1.0
176
     1
 90
        1
176
     1
 90
        6
176
     1
 90
        2
176
     1
 62
     7
176
     1
 90
        5
176
     1
 90
        0
176
     1
 90
        0
176
     1
290
     0
176
     1
 90
       13
176
     1
 40
0.0
176
     1
 90
        0
176
     1
290
     0
176
     1
290
     1
176
     1
290
     1
176
     1
290
     0
176
     1
290
     0
176
     1
290
     0
176
     1
290
     0
176
     1
290
     0
176
     1
290
     0
176
     1
 90
       50
176
     1
 40
0.0
176
     1
 40
1.0
176
     1
 90
        0
176
     1
 62
    18
420
        0
176
     1
 90
       50
176
     1
 90
        3
176
     1
 62
     5
420
      255
176
     1
290
     0
176
     1
 90
       50
176
     1
 90
       50
176
     1
 90
       50
176
     1
290
     0
176
     1
 90
       50
176
     1
 62
   256
176
     0
 40
1.0
176
     0
 90
        2
176
     1
  1
strokes_ogs.tif
176
     1
290
     0
176
     1
 40
1.0
176
     1
 40
1.0
176
     1
  0
VISUALSTYLE
  5
2D
102
{ACAD_REACTORS
330
2A
102
}
330
2A
100
AcDbVisualStyle
  2
Gouraud
 70
     2
177
     3
291
     1
 70
    58
 90
        2
176
     1
 90
        2
176
     1
 90
        1
176
     1
 90
        2
176
     1
 40
0.6
176
     1
 40
30.0
176
     1
 62
     7
420
 16777215
176
     1
 90
        0
176
     1
 90
        0
176
     1
 62
     7
176
     1
 62
   257
176
     1
 90
        1
176
     1
 90
        1
176
     1
 40
1.0
176
     1
 90
        0
176
     1
 62
     7
176
     1
 40
1.0
176
     1
 90
        1
176
     1
 90
        6
176
     1
 90
        2
176
     1
 62
     7
176
     1
 90
        5
176
     1
 90
        0
176
     1
 90
        0
176
     1
290
     0
176
     1
 90
       13
176
     1
 40
0.0
176
     1
 90
        0
176
     1
290
     0
176
     1
290
     1
176
     1
290
     1
176
     1
290
     0
176
     1
290
     0
176
     1
290
     0
176
     1
290
     0
176
     1
290
     0
176
     1
290
     0
176
     1
 90
       50
176
     1
 40
0.0
176
     1
 40
1.0
176
     1
 90
        0
176
     1
 62
    18
420
        0
176
     1
 90
       50
176
     1
 90
        3
176
     1
 62
     5
420
      255
176
     1
290
     0
176
     1
 90
       50
176
     1
 90
       50
176
     1
 90
       50
176
     1
290
     0
176
     1
 90
       50
176
     1
 62
   256
176
     0
 40
1.0
176
     0
 90
        2
176
     1
  1
strokes_ogs.tif
176
     1
290
     0
176
     1
 40
1.0
176
     1
 40
1.0
176
     1
  0
VISUALSTYLE
  5
2E
102
{ACAD_REACTORS
330
2A
102
}
330
2A
100
AcDbVisualStyle
  2
GouraudWithEdges
 70
     3
177
     3
291
     1
 70
    58
 90
        2
176
     1
 90
        2
176
     1
 90
        1
176
     1
 90
        2
176
     1
 40
0.6
176
     1
 40
30.0
176
     1
 62
     7
420
 16777215
176
     1
 90
        1
176
     1
 90
        0
176
     1
 62
     7
176
     1
 62
   257
176
     1
 90
        1
176
     1
 90
        1
176
     1
 40
1.0
176
     1
 90
        0
176
     1
 62
   257
176
     1
 40
1.0
176
     1
 90
        1
176
     1
 90
        6
176
     1
 90
        2
176
     1
 62
     7
176
     1
 90
        5
176
     1
 90
        0
176
     1
 90
        0
176
     1
290
     0
176
     1
 90
       13
176
     1
 40
0.0
176
     1
 90
        0
176
     1
290
     0
176
     1
290
     1
176
     1
290
     1
176
     1
290
     0
176
     1
290
     0
176
     1
290
     0
176
     1
290
     0
176
     1
290
     0
176
     1
290
     0
176
     1
 90
       50
176
     1
 40
0.0
176
     1
 40
1.0
176
     1
 90
        0
176
     1
 62
    18
420
        0
176
     1
 90
       50
176
     1
 90
        3
176
     1
 62
     5
420
      255
176
     1
290
     0
176
     1
 90
       50
176
     1
 90
       50
176
     1
 90
       50
176
     1
290
     0
176
     1
 90
       50
176
     1
 62
   256
176
     0
 40
1.0
176
     0
 90
        2
176
     1
  1
strokes_ogs.tif
176
     1
290
     0
176
     1
 40
1.0
176
     1
 40
1.0
176
     1
  0
VISUALSTYLE
  5
31
102
{ACAD_REACTORS
330
2A
102
}
330
2A
100
AcDbVisualStyle
  2
Hidden
 70
     6
177
     3
291
     0
 70
    58
 90
        1
176
     1
 90
        2
176
     1
 90
        2
176
     1
 90
        0
176
     1
 40
0.6
176
     1
 40
30.0
176
     1
 62
     7
420
 16777215
176
     1
 90
        2
176
     1
 90
        2
176
     1
 62
     7
176
     1
 62
   257
176
     1
 90
        2
176
     1
 90
        1
176
     1
 40
40.0
176
     1
 90
        0
176
     1
 62
   257
176
     1
 40
1.0
176
     1
 90
        1
176
     1
 90
        6
176
     1
 90
        2
176
     1
 62
     7
176
     1
 90
        3
176
     1
 90
        0
176
     1
 90
        0
176
     1
290
     0
176
     1
 90
        1
176
     1
 40
0.0
176
     1
 90
        0
176
     1
290
     0
176
     1
290
     1
176
     1
290
     1
176
     1
290
     0
176
     1
290
     0
176
     1
290
     0
176
     1
290
     0
176
     1
290
     0
176
     1
290
     0
176
     1
 90
       50
176
     1
 40
0.0
176
     1
 40
1.0
176
     1
 90
        0
176
     1
 62
    18
420
        0
176
     1
 90
       50
176
     1
 90
        3
176
     1
 62
     5
420
      255
176
     1
290
     0
176
     1
 90
       50
176
     1
 90
       50
176
     1
 90
       50
176
     1
290
     0
176
     1
 90
       50
176
     1
 62
   256
176
     0
 40
1.0
176
     0
 90
        2
176
     1
  1
strokes_ogs.tif
176
     1
290
     0
176
     1
 40
1.0
176
     1
 40
1.0
176
     1
  0
VISUALSTYLE
  5
3B
102
{ACAD_REACTORS
330
2A
102
}
330
2A
100
AcDbVisualStyle
  2
JitterOff
 70
    20
177
     3
291
     1
 70
    58
 90
        2
176
     0
 90
        2
176
     0
 90
        0
176
     0
 90
        0
176
     0
 40
0.6
176
     0
 40
30.0
176
     0
 62
     7
420
 16777215
176
     0
 90
        1
176
     0
 90
        4
176
     0
 62
     7
176
     0
 62
   257
176
     0
 90
        1
176
     0
 90
        1
176
     0
 40
1.0
176
     0
 90
       10
176
     2
 62
     7
176
     0
 40
1.0
176
     0
 90
        1
176
     0
 90
        6
176
     0
 90
        2
176
     0
 62
     7
176
     0
 90
        5
176
     0
 90
        0
176
     0
 90
        0
176
     0
290
     0
176
     0
 90
        1
176
     0
 40
0.0
176
     0
 90
        0
176
     0
290
     0
176
     0
290
     1
176
     0
290
     1
176
     0
290
     0
176
     0
290
     0
176
     0
290
     0
176
     0
290
     0
176
     0
290
     0
176
     0
290
     0
176
     0
 90
       50
176
     0
 40
0.0
176
     0
 40
1.0
176
     0
 90
        0
176
     0
 62
    18
420
        0
176
     0
 90
       50
176
     0
 90
        3
176
     0
 62
     5
420
      255
176
     0
290
     0
176
     0
 90
       50
176
     0
 90
       50
176
     0
 90
       50
176
     0
290
     0
176
     0
 90
       50
176
     0
 62
   256
176
     0
 40
1.0
176
     0
 90
        2
176
     0
  1
strokes_ogs.tif
176
     0
290
     0
176
     0
 40
1.0
176
     0
 40
1.0
176
     0
  0
VISUALSTYLE
  5
38
102
{ACAD_REACTORS
330
2A
102
}
330
2A
100
AcDbVisualStyle
  2
Linepattern
 70
    14
177
     3
291
     1
 70
    58
 90
        2
176
     1
 90
        2
176
     1
 90
        0
176
     1
 90
        0
176
     1
 40
0.6
176
     1
 40
30.0
176
     1
 62
     7
420
 16777215
176
     1
 90
        1
176
     1
 90
        4
176
     1
 62
     7
176
     1
 62
   257
176
     1
 90
        7
176
     1
 90
        7
176
     1
 40
1.0
176
     1
 90
        8
176
     1
 62
     7
176
     1
 40
1.0
176
     1
 90
        1
176
     1
 90
        6
176
     1
 90
        2
176
     1
 62
     7
176
     1
 90
        5
176
     1
 90
        0
176
     1
 90
        0
176
     1
290
     0
176
     1
 90
        1
176
     1
 40
0.0
176
     1
 90
        0
176
     1
290
     0
176
     1
290
     1
176
     1
290
     1
176
     1
290
     0
176
     1
290
     0
176
     1
290
     0
176
     1
290
     0
176
     1
290
     0
176
     1
290
     0
176
     1
 90
       50
176
     1
 40
0.0
176
     1
 40
1.0
176
     1
 90
        0
176
     1
 62
    18
420
        0
176
     1
 90
       50
176
     1
 90
        3
176
     1
 62
     5
420
      255
176
     1
290
     0
176
     1
 90
       50
176
     1
 90
       50
176
     1
 90
       50
176
     1
290
     0
176
     1
 90
       50
176
     1
 62
   256
176
     0
 40
1.0
176
     0
 90
        2
176
     1
  1
strokes_ogs.tif
176
     1
290
     0
176
     1
 40
1.0
176
     1
 40
1.0
176
     1
  0
VISUALSTYLE
  5
3C
102
{ACAD_REACTORS
330
2A
102
}
330
2A
100
AcDbVisualStyle
  2
OverhangOff
 70
    21
177
     3
291
     1
 70
    58
 90
        2
176
     0
 90
        2
176
     0
 90
        0
176
     0
 90
        0
176
     0
 40
0.6
176
     0
 40
30.0
176
     0
 62
     7
420
 16777215
176
     0
 90
        1
176
     0
 90
        4
176
     0
 62
     7
176
     0
 62
   257
176
     0
 90
        1
176
     0
 90
        1
176
     0
 40
1.0
176
     0
 90
        9
176
     2
 62
     7
176
     0
 40
1.0
176
     0
 90
        1
176
     0
 90
        6
176
     0
 90
        2
176
     0
 62
     7
176
     0
 90
        5
176
     0
 90
        0
176
     0
 90
        0
176
     0
290
     0
176
     0
 90
        1
176
     0
 40
0.0
176
     0
 90
        0
176
     0
290
     0
176
     0
290
     1
176
     0
290
     1
176
     0
290
     0
176
     0
290
     0
176
     0
290
     0
176
     0
290
     0
176
     0
290
     0
176
     0
290
     0
176
     0
 90
       50
176
     0
 40
0.0
176
     0
 40
1.0
176
     0
 90
        0
176
     0
 62
    18
420
        0
176
     0
 90
       50
176
     0
 90
        3
176
     0
 62
     5
420
      255
176
     0
290
     0
176
     0
 90
       50
176
     0
 90
       50
176
     0
 90
       50
176
     0
290
     0
176
     0
 90
       50
176
     0
 62
   256
176
     0
 40
1.0
176
     0
 90
        2
176
     0
  1
strokes_ogs.tif
176
     0
290
     0
176
     0
 40
1.0
176
     0
 40
1.0
176
     0
  0
VISUALSTYLE
  5
33
102
{ACAD_REACTORS
330
2A
102
}
330
2A
100
AcDbVisualStyle
  2
Realistic
 70
     8
177
     3
291
     0
 70
    58
 90
        2
176
     1
 90
        3
176
     1
 90
        0
176
     1
 90
        2
176
     1
 40
0.6
176
     1
 40
30.0
176
     1
 62
     7
420
 16777215
176
     1
 90
        0
176
     1
 90
        0
176
     1
 62
     7
176
     1
 62
   257
176
     1
 90
        1
176
     1
 90
        1
176
     1
 40
1.0
176
     1
 90
        8
176
     1
 62
   257
176
     1
 40
1.0
176
     1
 90
        1
176
     1
 90
        6
176
     1
 90
        2
176
     1
 62
     7
176
     1
 90
        3
176
     1
 90
        0
176
     1
 90
        0
176
     1
290
     0
176
     1
 90
       13
176
     1
 40
0.0
176
     1
 90
        0
176
     1
290
     0
176
     1
290
     1
176
     1
290
     1
176
     1
290
     0
176
     1
290
     0
176
     1
290
     0
176
     1
290
     0
176
     1
290
     0
176
     1
290
     0
176
     1
 90
       50
176
     1
 40
0.0
176
     1
 40
1.0
176
     1
 90
        0
176
     1
 62
    18
420
        0
176
     1
 90
       50
176
     1
 90
        3
176
     1
 62
     5
420
      255
176
     1
290
     0
176
     1
 90
       50
176
     1
 90
       50
176
     1
 90
       50
176
     1
290
     0
176
     1
 90
       50
176
     1
 62
   256
176
     0
 40
1.0
176
     0
 90
        2
176
     1
  1
strokes_ogs.tif
176
     1
290
     0
176
     1
 40
1.0
176
     1
 40
1.0
176
     1
  0
VISUALSTYLE
  5
42
102
{ACAD_REACTORS
330
2A
102
}
330
2A
100
AcDbVisualStyle
  2
Shaded
 70
    27
177
     3
291
     0
 70
    58
 90
        2
176
     1
 90
        2
176
     1
 90
        1
176
     1
 90
        2
176
     1
 40
0.6
176
     1
 40
30.0
176
     1
 62
     7
420
 16777215
176
     1
 90
        0
176
     1
 90
        4
176
     1
 62
     7
176
     1
 62
   257
176
     1
 90
        1
176
     1
 90
        1
176
     1
 40
1.0
176
     1
 90
        8
176
     1
 62
   257
176
     1
 40
1.0
176
     1
 90
        1
176
     1
 90
        6
176
     1
 90
        2
176
     1
 62
     8
420
  7895160
176
     1
 90
        3
176
     1
 90
        0
176
     1
 90
        0
176
     1
290
     0
176
     1
 90
        5
176
     1
 40
0.0
176
     1
 90
        0
176
     1
290
     0
176
     1
290
     1
176
     1
290
     1
176
     1
290
     0
176
     1
290
     0
176
     1
290
     0
176
     1
290
     0
176
     1
290
     0
176
     1
290
     0
176
     1
 90
       50
176
     1
 40
0.0
176
     1
 40
1.0
176
     1
 90
        0
176
     1
 62
    18
420
        0
176
     1
 90
       50
176
     1
 90
        3
176
     1
 62
     5
420
      255
176
     1
290
     0
176
     1
 90
       50
176
     1
 90
       50
176
     1
 90
       50
176
     1
290
     0
176
     1
 90
       50
176
     1
 62
   256
176
     0
 40
1.0
176
     0
 90
        2
176
     1
  1
strokes_ogs.tif
176
     1
290
     0
176
     1
 40
1.0
176
     1
 40
1.0
176
     1
  0
VISUALSTYLE
  5
41
102
{ACAD_REACTORS
330
2A
102
}
330
2A
100
AcDbVisualStyle
  2
Shaded with edges
 70
    26
177
     3
291
     0
 70
    58
 90
        2
176
     1
 90
        2
176
     1
 90
        1
176
     1
 90
        2
176
     1
 40
0.6
176
     1
 40
30.0
176
     1
 62
     7
420
 16777215
176
     1
 90
        1
176
     1
 90
       10
176
     1
 62
     7
176
     1
 62
   257
176
     1
 90
        2
176
     1
 90
        1
176
     1
 40
1.0
176
     1
 90
        8
176
     1
 62
   257
176
     1
 40
1.0
176
     1
 90
        1
176
     1
 90
        6
176
     1
 90
        2
176
     1
 62
     7
176
     1
 90
        3
176
     1
 90
        0
176
     1
 90
        0
176
     1
290
     0
176
     1
 90
        5
176
     1
 40
0.0
176
     1
 90
        0
176
     1
290
     0
176
     1
290
     1
176
     1
290
     1
176
     1
290
     0
176
     1
290
     0
176
     1
290
     0
176
     1
290
     0
176
     1
290
     0
176
     1
290
     0
176
     1
 90
       50
176
     1
 40
0.0
176
     1
 40
1.0
176
     1
 90
        0
176
     1
 62
    18
420
        0
176
     1
 90
       50
176
     1
 90
        3
176
     1
 62
     5
420
      255
176
     1
290
     0
176
     1
 90
       50
176
     1
 90
       50
176
     1
 90
       50
176
     1
290
     0
176
     1
 90
       50
176
     1
 62
   256
176
     0
 40
1.0
176
     0
 90
        2
176
     1
  1
strokes_ogs.tif
176
     1
290
     0
176
     1
 40
1.0
176
     1
 40
1.0
176
     1
  0
VISUALSTYLE
  5
3E
102
{ACAD_REACTORS
330
2A
102
}
330
2A
100
AcDbVisualStyle
  2
Shades of Gray
 70
    23
177
     3
291
     0
 70
    58
 90
        2
176
     1
 90
        2
176
     1
 90
        3
176
     1
 90
        0
176
     1
 40
0.6
176
     1
 40
30.0
176
     1
 62
     7
420
 16777215
176
     1
 90
        2
176
     1
 90
        2
176
     1
 62
     7
176
     1
 62
     7
176
     1
 90
        1
176
     1
 90
        1
176
     1
 40
40.0
176
     1
 90
        8
176
     1
 62
     7
176
     1
 40
1.0
176
     1
 90
        1
176
     1
 90
        6
176
     1
 90
        2
176
     1
 62
     7
176
     1
 90
        3
176
     1
 90
        0
176
     1
 90
        0
176
     1
290
     0
176
     1
 90
        1
176
     1
 40
0.0
176
     1
 90
        0
176
     1
290
     0
176
     1
290
     1
176
     1
290
     1
176
     1
290
     0
176
     1
290
     0
176
     1
290
     0
176
     1
290
     0
176
     1
290
     0
176
     1
290
     0
176
     1
 90
       50
176
     1
 40
0.0
176
     1
 40
1.0
176
     1
 90
        0
176
     1
 62
    18
420
        0
176
     1
 90
       50
176
     1
 90
        3
176
     1
 62
     5
420
      255
176
     1
290
     0
176
     1
 90
       50
176
     1
 90
       50
176
     1
 90
       50
176
     1
290
     0
176
     1
 90
       50
176
     1
 62
   256
176
     0
 40
1.0
176
     0
 90
        2
176
     1
  1
strokes_ogs.tif
176
     1
290
     0
176
     1
 40
1.0
176
     1
 40
1.0
176
     1
  0
VISUALSTYLE
  5
3F
102
{ACAD_REACTORS
330
2A
102
}
330
2A
100
AcDbVisualStyle
  2
Sketchy
 70
    24
177
     3
291
     0
 70
    58
 90
        1
176
     1
 90
        2
176
     1
 90
        2
176
     1
 90
        0
176
     1
 40
0.6
176
     1
 40
30.0
176
     1
 62
     7
420
 16777215
176
     1
 90
        2
176
     1
 90
        2
176
     1
 62
     7
176
     1
 62
     7
176
     1
 90
        1
176
     1
 90
        1
176
     1
 40
40.0
176
     1
 90
       11
176
     1
 62
     7
176
     1
 40
1.0
176
     1
 90
        1
176
     1
 90
        6
176
     1
 90
        2
176
     1
 62
     7
176
     1
 90
        6
176
     1
 90
        0
176
     1
 90
        0
176
     1
290
     0
176
     1
 90
        1
176
     1
 40
0.0
176
     1
 90
        0
176
     1
290
     0
176
     1
290
     1
176
     1
290
     1
176
     1
290
     0
176
     1
290
     0
176
     1
290
     0
176
     1
290
     0
176
     1
290
     0
176
     1
290
     0
176
     1
 90
       50
176
     1
 40
0.0
176
     1
 40
1.0
176
     1
 90
        0
176
     1
 62
    18
420
        0
176
     1
 90
       50
176
     1
 90
        3
176
     1
 62
     5
420
      255
176
     1
290
     0
176
     1
 90
       50
176
     1
 90
       50
176
     1
 90
       50
176
     1
290
     0
176
     1
 90
       50
176
     1
 62
   256
176
     0
 40
1.0
176
     0
 90
        2
176
     1
  1
strokes_ogs.tif
176
     1
290
     0
176
     1
 40
1.0
176
     1
 40
1.0
176
     1
  0
VISUALSTYLE
  5
37
102
{ACAD_REACTORS
330
2A
102
}
330
2A
100
AcDbVisualStyle
  2
Thicken
 70
    13
177
     3
291
     1
 70
    58
 90
        2
176
     1
 90
        2
176
     1
 90
        0
176
     1
 90
        0
176
     1
 40
0.6
176
     1
 40
30.0
176
     1
 62
     7
420
 16777215
176
     1
 90
        1
176
     1
 90
        4
176
     1
 62
     7
176
     1
 62
   257
176
     1
 90
        1
176
     1
 90
        1
176
     1
 40
1.0
176
     1
 90
       12
176
     1
 62
     7
176
     1
 40
1.0
176
     1
 90
        1
176
     1
 90
        6
176
     1
 90
        2
176
     1
 62
     7
176
     1
 90
        5
176
     1
 90
        0
176
     1
 90
        0
176
     1
290
     0
176
     1
 90
        1
176
     1
 40
0.0
176
     1
 90
        0
176
     1
290
     0
176
     1
290
     1
176
     1
290
     1
176
     1
290
     0
176
     1
290
     0
176
     1
290
     0
176
     1
290
     0
176
     1
290
     0
176
     1
290
     0
176
     1
 90
       50
176
     1
 40
0.0
176
     1
 40
1.0
176
     1
 90
        0
176
     1
 62
    18
420
        0
176
     1
 90
       50
176
     1
 90
        3
176
     1
 62
     5
420
      255
176
     1
290
     0
176
     1
 90
       50
176
     1
 90
       50
176
     1
 90
       50
176
     1
290
     0
176
     1
 90
       50
176
     1
 62
   256
176
     0
 40
1.0
176
     0
 90
        2
176
     1
  1
strokes_ogs.tif
176
     1
290
     0
176
     1
 40
1.0
176
     1
 40
1.0
176
     1
  0
VISUALSTYLE
  5
30
102
{ACAD_REACTORS
330
2A
102
}
330
2A
100
AcDbVisualStyle
  2
Wireframe
 70
     5
177
     3
291
     0
 70
    58
 90
        0
176
     1
 90
        2
176
     1
 90
        0
176
     1
 90
        0
176
     1
 40
0.6
176
     1
 40
30.0
176
     1
 62
     7
420
 16777215
176
     1
 90
        1
176
     1
 90
        4
176
     1
 62
     7
176
     1
 62
   257
176
     1
 90
        1
176
     1
 90
        1
176
     1
 40
1.0
176
     1
 90
        0
176
     1
 62
   257
176
     1
 40
1.0
176
     1
 90
        1
176
     1
 90
        6
176
     1
 90
        2
176
     1
 62
     7
176
     1
 90
        3
176
     1
 90
        0
176
     1
 90
        0
176
     1
290
     0
176
     1
 90
        1
176
     1
 40
0.0
176
     1
 90
        0
176
     1
290
     0
176
     1
290
     1
176
     1
290
     1
176
     1
290
     0
176
     1
290
     0
176
     1
290
     0
176
     1
290
     0
176
     1
290
     0
176
     1
290
     0
176
     1
 90
       50
176
     1
 40
0.0
176
     1
 40
1.0
176
     1
 90
        0
176
     1
 62
    18
420
        0
176
     1
 90
       50
176
     1
 90
        3
176
     1
 62
     5
420
      255
176
     1
290
     0
176
     1
 90
       50
176
     1
 90
       50
176
     1
 90
       50
176
     1
290
     0
176
     1
 90
       50
176
     1
 62
   256
176
     0
 40
1.0
176
     0
 90
        2
176
     1
  1
strokes_ogs.tif
176
     1
290
     0
176
     1
 40
1.0
176
     1
 40
1.0
176
     1
  0
VISUALSTYLE
  5
40
102
{ACAD_REACTORS
330
2A
102
}
330
2A
100
AcDbVisualStyle
  2
X-Ray
 70
    25
177
     3
291
     0
 70
    58
 90
        2
176
     1
 90
        2
176
     1
 90
        1
176
     1
 90
        1
176
     1
 40
0.5
176
     1
 40
30.0
176
     1
 62
     7
420
 16777215
176
     1
 90
        1
176
     1
 90
        0
176
     1
 62
     7
176
     1
 62
   257
176
     1
 90
        1
176
     1
 90
        1
176
     1
 40
1.0
176
     1
 90
        8
176
     1
 62
     7
176
     1
 40
1.0
176
     1
 90
        1
176
     1
 90
        6
176
     1
 90
        2
176
     1
 62
     7
176
     1
 90
        3
176
     1
 90
        0
176
     1
 90
        0
176
     1
290
     0
176
     1
 90
       13
176
     1
 40
0.0
176
     1
 90
        0
176
     1
290
     0
176
     1
290
     1
176
     1
290
     1
176
     1
290
     0
176
     1
290
     0
176
     1
290
     0
176
     1
290
     0
176
     1
290
     0
176
     1
290
     0
176
     1
 90
       50
176
     1
 40
0.0
176
     1
 40
1.0
176
     1
 90
        0
176
     1
 62
    18
420
        0
176
     1
 90
       50
176
     1
 90
        3
176
     1
 62
     5
420
      255
176
     1
290
     0
176
     1
 90
       50
176
     1
 90
       50
176
     1
 90
       50
176
     1
290
     0
176
     1
 90
       50
176
     1
 62
   256
176
     0
 40
1.0
176
     0
 90
        2
176
     1
  1
strokes_ogs.tif
176
     1
290
     0
176
     1
 40
1.0
176
     1
 40
1.0
176
     1
  0
DICTIONARYVAR
  5
1F7
102
{ACAD_REACTORS
330
1F6
102
}
330
1F6
100
DictionaryVariables
280
     0
  1
1:1
  0
DICTIONARYVAR
  5
1FF
102
{ACAD_REACTORS
330
1F6
102
}
330
1F6
100
DictionaryVariables
280
     0
  1
3.500000
  0
DICTIONARYVAR
  5
200
102
{ACAD_REACTORS
330
1F6
102
}
330
1F6
100
DictionaryVariables
280
     0
  1
acadiso.lin
  0
DICTIONARYVAR
  5
1FC
102
{ACAD_REACTORS
330
1F6
102
}
330
1F6
100
DictionaryVariables
280
     0
  1
Standard
  0
DICTIONARYVAR
  5
1FB
102
{ACAD_REACTORS
330
1F6
102
}
330
1F6
100
DictionaryVariables
280
     0
  1
Standard
  0
DICTIONARY
  5
1F8
330
6A
100
AcDbDictionary
280
     1
281
     1
  3
ACAD_ROUNDTRIP_2008_TABLESTYLE_CELLSTYLEMAP
360
1F9
  0
CELLSTYLEMAP
  5
1F9
102
{ACAD_REACTORS
330
1F8
102
}
330
1F8
100
AcDbCellStyleMap
 90
        3
300
CELLSTYLE
  1
TABLEFORMAT_BEGIN
 90
        5
170
     1
 91
        0
 92
    32768
 62
   257
 93
        1
300
CONTENTFORMAT
  1
CONTENTFORMAT_BEGIN
 90
        0
 91
        0
 92
        4
 93
        0
300

 40
0.0
140
1.0
 94
        5
 62
     0
340
11
144
6.0
309
CONTENTFORMAT_END
171
     1
301
MARGIN
  1
CELLMARGIN_BEGIN
 40
1.5
 40
1.5
 40
1.5
 40
1.5
 40
1.5
 40
1.5
309
CELLMARGIN_END
 94
        6
 95
        1
302
GRIDFORMAT
  1
GRIDFORMAT_BEGIN
 90
        0
 91
        1
 62
     0
 92
       -2
340
14
 93
        0
 40
0.045
309
GRIDFORMAT_END
 95
        2
302
GRIDFORMAT
  1
GRIDFORMAT_BEGIN
 90
        0
 91
        1
 62
     0
 92
       -2
340
14
 93
        0
 40
0.045
309
GRIDFORMAT_END
 95
        4
302
GRIDFORMAT
  1
GRIDFORMAT_BEGIN
 90
        0
 91
        1
 62
     0
 92
       -2
340
14
 93
        0
 40
0.045
309
GRIDFORMAT_END
 95
        8
302
GRIDFORMAT
  1
GRIDFORMAT_BEGIN
 90
        0
 91
        1
 62
     0
 92
       -2
340
14
 93
        0
 40
0.045
309
GRIDFORMAT_END
 95
       16
302
GRIDFORMAT
  1
GRIDFORMAT_BEGIN
 90
        0
 91
        1
 62
     0
 92
       -2
340
14
 93
        0
 40
0.045
309
GRIDFORMAT_END
 95
       32
302
GRIDFORMAT
  1
GRIDFORMAT_BEGIN
 90
        0
 91
        1
 62
     0
 92
       -2
340
14
 93
        0
 40
0.045
309
GRIDFORMAT_END
309
TABLEFORMAT_END
  1
CELLSTYLE_BEGIN
 90
        1
 91
        1
300
_TITLE
309
CELLSTYLE_END
300
CELLSTYLE
  1
TABLEFORMAT_BEGIN
 90
        5
170
     1
 91
        0
 92
        0
 62
   257
 93
        1
300
CONTENTFORMAT
  1
CONTENTFORMAT_BEGIN
 90
        0
 91
        0
 92
        4
 93
        0
300

 40
0.0
140
1.0
 94
        5
 62
     0
340
11
144
4.5
309
CONTENTFORMAT_END
171
     1
301
MARGIN
  1
CELLMARGIN_BEGIN
 40
1.5
 40
1.5
 40
1.5
 40
1.5
 40
1.5
 40
1.5
309
CELLMARGIN_END
 94
        6
 95
        1
302
GRIDFORMAT
  1
GRIDFORMAT_BEGIN
 90
        0
 91
        1
 62
     0
 92
       -2
340
14
 93
        0
 40
0.045
309
GRIDFORMAT_END
 95
        2
302
GRIDFORMAT
  1
GRIDFORMAT_BEGIN
 90
        0
 91
        1
 62
     0
 92
       -2
340
14
 93
        0
 40
0.045
309
GRIDFORMAT_END
 95
        4
302
GRIDFORMAT
  1
GRIDFORMAT_BEGIN
 90
        0
 91
        1
 62
     0
 92
       -2
340
14
 93
        0
 40
0.045
309
GRIDFORMAT_END
 95
        8
302
GRIDFORMAT
  1
GRIDFORMAT_BEGIN
 90
        0
 91
        1
 62
     0
 92
       -2
340
14
 93
        0
 40
0.045
309
GRIDFORMAT_END
 95
       16
302
GRIDFORMAT
  1
GRIDFORMAT_BEGIN
 90
        0
 91
        1
 62
     0
 92
       -2
340
14
 93
        0
 40
0.045
309
GRIDFORMAT_END
 95
       32
302
GRIDFORMAT
  1
GRIDFORMAT_BEGIN
 90
        0
 91
        1
 62
     0
 92
       -2
340
14
 93
        0
 40
0.045
309
GRIDFORMAT_END
309
TABLEFORMAT_END
  1
CELLSTYLE_BEGIN
 90
        2
 91
        1
300
_HEADER
309
CELLSTYLE_END
300
CELLSTYLE
  1
TABLEFORMAT_BEGIN
 90
        5
170
     1
 91
        0
 92
        0
 62
   257
 93
        1
300
CONTENTFORMAT
  1
CONTENTFORMAT_BEGIN
 90
        0
 91
        0
 92
        4
 93
        0
300

 40
0.0
140
1.0
 94
        2
 62
     0
340
11
144
4.5
309
CONTENTFORMAT_END
171
     1
301
MARGIN
  1
CELLMARGIN_BEGIN
 40
1.5
 40
1.5
 40
1.5
 40
1.5
 40
1.5
 40
1.5
309
CELLMARGIN_END
 94
        6
 95
        1
302
GRIDFORMAT
  1
GRIDFORMAT_BEGIN
 90
        0
 91
        1
 62
     0
 92
       -2
340
14
 93
        0
 40
0.045
309
GRIDFORMAT_END
 95
        2
302
GRIDFORMAT
  1
GRIDFORMAT_BEGIN
 90
        0
 91
        1
 62
     0
 92
       -2
340
14
 93
        0
 40
0.045
309
GRIDFORMAT_END
 95
        4
302
GRIDFORMAT
  1
GRIDFORMAT_BEGIN
 90
        0
 91
        1
 62
     0
 92
       -2
340
14
 93
        0
 40
0.045
309
GRIDFORMAT_END
 95
        8
302
GRIDFORMAT
  1
GRIDFORMAT_BEGIN
 90
        0
 91
        1
 62
     0
 92
       -2
340
14
 93
        0
 40
0.045
309
GRIDFORMAT_END
 95
       16
302
GRIDFORMAT
  1
GRIDFORMAT_BEGIN
 90
        0
 91
        1
 62
     0
 92
       -2
340
14
 93
        0
 40
0.045
309
GRIDFORMAT_END
 95
       32
302
GRIDFORMAT
  1
GRIDFORMAT_BEGIN
 90
        0
 91
        1
 62
     0
 92
       -2
340
14
 93
        0
 40
0.045
309
GRIDFORMAT_END
309
TABLEFORMAT_END
  1
CELLSTYLE_BEGIN
 90
        3
 91
        2
300
_DATA
309
CELLSTYLE_END
  0
ENDSEC
  0
EOF
